solid OpenSCAD_Model
  facet normal 1 0 0
    outer loop
      vertex 1 2.8 2.6
      vertex 1 2.725 2.55
      vertex 1 2.8 -1.90735e-07
    endloop
  endfacet
  facet normal 1 0 0
    outer loop
      vertex 1 2.8 2.6
      vertex 1 0.075 2.55
      vertex 1 2.725 2.55
    endloop
  endfacet
  facet normal 1 -0 0
    outer loop
      vertex 1 -7.62939e-07 2.6
      vertex 1 0.075 2.55
      vertex 1 2.8 2.6
    endloop
  endfacet
  facet normal 1 0 0
    outer loop
      vertex 1 -7.62939e-07 -1.90735e-07
      vertex 1 0.075 2.55
      vertex 1 -7.62939e-07 2.6
    endloop
  endfacet
  facet normal 1 0 0
    outer loop
      vertex 1 0.075 2.55
      vertex 1 -7.62939e-07 -1.90735e-07
      vertex 1 0.075 -1.90735e-07
    endloop
  endfacet
  facet normal 1 0 0
    outer loop
      vertex 1 2.8 -1.90735e-07
      vertex 1 2.725 2.55
      vertex 1 2.725 -1.90735e-07
    endloop
  endfacet
  facet normal -0 0 1
    outer loop
      vertex 7.62939e-07 2.8 2.6
      vertex 1 -7.62939e-07 2.6
      vertex 1 2.8 2.6
    endloop
  endfacet
  facet normal 0 0 1
    outer loop
      vertex 1 -7.62939e-07 2.6
      vertex 7.62939e-07 2.8 2.6
      vertex 7.62939e-07 -7.62939e-07 2.6
    endloop
  endfacet
  facet normal 0 0 -1
    outer loop
      vertex 7.62939e-07 -7.62939e-07 -1.90735e-07
      vertex 1 0.075 -1.90735e-07
      vertex 1 -7.62939e-07 -1.90735e-07
    endloop
  endfacet
  facet normal -0 0 -1
    outer loop
      vertex 1 0.075 -1.90735e-07
      vertex 7.62939e-07 -7.62939e-07 -1.90735e-07
      vertex 1 2.725 -1.90735e-07
    endloop
  endfacet
  facet normal 0 0 -1
    outer loop
      vertex 7.62939e-07 2.8 -1.90735e-07
      vertex 1 2.725 -1.90735e-07
      vertex 7.62939e-07 -7.62939e-07 -1.90735e-07
    endloop
  endfacet
  facet normal 0 0 -1
    outer loop
      vertex 1 2.725 -1.90735e-07
      vertex 7.62939e-07 2.8 -1.90735e-07
      vertex 1 2.8 -1.90735e-07
    endloop
  endfacet
  facet normal 0 0 -1
    outer loop
      vertex 3.9 0.2 -1.90735e-07
      vertex 37.69 2.6 -1.90735e-07
      vertex 37.69 0.2 -1.90735e-07
    endloop
  endfacet
  facet normal 0 0 -1
    outer loop
      vertex 3.9 0.2 -1.90735e-07
      vertex 3.9 2.6 -1.90735e-07
      vertex 37.69 2.6 -1.90735e-07
    endloop
  endfacet
  facet normal 0 0 -1
    outer loop
      vertex 1 0.075 -1.90735e-07
      vertex 3.9 2.6 -1.90735e-07
      vertex 3.9 0.2 -1.90735e-07
    endloop
  endfacet
  facet normal -0 0 -1
    outer loop
      vertex 3.9 2.6 -1.90735e-07
      vertex 1 0.075 -1.90735e-07
      vertex 1 2.725 -1.90735e-07
    endloop
  endfacet
  facet normal -1 0 0
    outer loop
      vertex 7.62939e-07 -7.62939e-07 -1.90735e-07
      vertex 7.62939e-07 2.8 2.6
      vertex 7.62939e-07 2.8 -1.90735e-07
    endloop
  endfacet
  facet normal -1 -0 0
    outer loop
      vertex 7.62939e-07 2.8 2.6
      vertex 7.62939e-07 -7.62939e-07 -1.90735e-07
      vertex 7.62939e-07 -7.62939e-07 2.6
    endloop
  endfacet
  facet normal 0 1 -0
    outer loop
      vertex 1 2.8 -1.90735e-07
      vertex 7.62939e-07 2.8 2.6
      vertex 1 2.8 2.6
    endloop
  endfacet
  facet normal 0 1 0
    outer loop
      vertex 7.62939e-07 2.8 2.6
      vertex 1 2.8 -1.90735e-07
      vertex 7.62939e-07 2.8 -1.90735e-07
    endloop
  endfacet
  facet normal 0 -1 0
    outer loop
      vertex 7.62939e-07 -7.62939e-07 -1.90735e-07
      vertex 1 -7.62939e-07 2.6
      vertex 7.62939e-07 -7.62939e-07 2.6
    endloop
  endfacet
  facet normal 0 -1 -0
    outer loop
      vertex 1 -7.62939e-07 2.6
      vertex 7.62939e-07 -7.62939e-07 -1.90735e-07
      vertex 1 -7.62939e-07 -1.90735e-07
    endloop
  endfacet
  facet normal 0.0516551 0 0.998665
    outer loop
      vertex 1 2.725 2.55
      vertex 3.9 0.2 2.4
      vertex 3.9 2.6 2.4
    endloop
  endfacet
  facet normal 0.0516551 0 0.998665
    outer loop
      vertex 3.9 0.2 2.4
      vertex 1 2.725 2.55
      vertex 1 0.075 2.55
    endloop
  endfacet
  facet normal 0.0430635 -0.999072 0
    outer loop
      vertex 1 0.075 -1.90735e-07
      vertex 3.9 0.2 2.4
      vertex 1 0.075 2.55
    endloop
  endfacet
  facet normal 0.0430635 -0.999072 0
    outer loop
      vertex 3.9 0.2 2.4
      vertex 1 0.075 -1.90735e-07
      vertex 3.9 0.2 -1.90735e-07
    endloop
  endfacet
  facet normal 0.0430635 0.999072 0
    outer loop
      vertex 1 2.725 -1.90735e-07
      vertex 3.9 2.6 2.4
      vertex 3.9 2.6 -1.90735e-07
    endloop
  endfacet
  facet normal 0.0430635 0.999072 0
    outer loop
      vertex 3.9 2.6 2.4
      vertex 1 2.725 -1.90735e-07
      vertex 1 2.725 2.55
    endloop
  endfacet
  facet normal 1 -0 0
    outer loop
      vertex 37.69 0.2 2.4
      vertex 37.69 2.6 -1.90735e-07
      vertex 37.69 2.6 2.4
    endloop
  endfacet
  facet normal 1 0 0
    outer loop
      vertex 37.69 2.6 -1.90735e-07
      vertex 37.69 0.2 2.4
      vertex 37.69 0.2 -1.90735e-07
    endloop
  endfacet
  facet normal -0 0 1
    outer loop
      vertex 3.9 2.6 2.4
      vertex 37.69 0.2 2.4
      vertex 37.69 2.6 2.4
    endloop
  endfacet
  facet normal 0 0 1
    outer loop
      vertex 37.69 0.2 2.4
      vertex 3.9 2.6 2.4
      vertex 3.9 0.2 2.4
    endloop
  endfacet
  facet normal 0 1 -0
    outer loop
      vertex 37.69 2.6 -1.90735e-07
      vertex 3.9 2.6 2.4
      vertex 37.69 2.6 2.4
    endloop
  endfacet
  facet normal 0 1 0
    outer loop
      vertex 3.9 2.6 2.4
      vertex 37.69 2.6 -1.90735e-07
      vertex 3.9 2.6 -1.90735e-07
    endloop
  endfacet
  facet normal 0 -1 0
    outer loop
      vertex 3.9 0.2 -1.90735e-07
      vertex 37.69 0.2 2.4
      vertex 3.9 0.2 2.4
    endloop
  endfacet
  facet normal 0 -1 -0
    outer loop
      vertex 37.69 0.2 2.4
      vertex 3.9 0.2 -1.90735e-07
      vertex 37.69 0.2 -1.90735e-07
    endloop
  endfacet
endsolid OpenSCAD_Model
