solid 
 facet normal  1.000000e+00  0.000000e+00  0.000000e+00
   outer loop
     vertex  2.549000e+01  1.565341e+01  1.000000e+00
     vertex  2.549000e+01  6.792522e+00  0.000000e+00
     vertex  2.549000e+01  1.565341e+01  0.000000e+00
   endloop
 endfacet
 facet normal  1.000000e+00  0.000000e+00  0.000000e+00
   outer loop
     vertex  2.549000e+01  1.565341e+01  1.000000e+00
     vertex  2.549000e+01  6.792522e+00  1.000000e+00
     vertex  2.549000e+01  6.792522e+00  0.000000e+00
   endloop
 endfacet
 facet normal  0.000000e+00 -1.000000e+00  0.000000e+00
   outer loop
     vertex  2.029525e+01  6.792522e+00  1.000000e+00
     vertex  2.549000e+01  6.792522e+00  0.000000e+00
     vertex  2.549000e+01  6.792522e+00  1.000000e+00
   endloop
 endfacet
 facet normal  0.000000e+00 -1.000000e+00  0.000000e+00
   outer loop
     vertex  2.029525e+01  6.792522e+00  1.000000e+00
     vertex  2.029525e+01  6.792522e+00  0.000000e+00
     vertex  2.549000e+01  6.792522e+00  0.000000e+00
   endloop
 endfacet
 facet normal  0.000000e+00  0.000000e+00  1.000000e+00
   outer loop
     vertex  2.029525e+01  1.565341e+01  1.000000e+00
     vertex  2.029525e+01  6.792522e+00  1.000000e+00
     vertex  2.549000e+01  6.792522e+00  1.000000e+00
   endloop
 endfacet
 facet normal  0.000000e+00  0.000000e+00  1.000000e+00
   outer loop
     vertex  2.549000e+01  1.565341e+01  1.000000e+00
     vertex  2.029525e+01  1.565341e+01  1.000000e+00
     vertex  2.549000e+01  6.792522e+00  1.000000e+00
   endloop
 endfacet
 facet normal -1.000000e+00  0.000000e+00  0.000000e+00
   outer loop
     vertex  2.029525e+01  6.792522e+00  1.000000e+00
     vertex  2.029525e+01  1.565341e+01  1.000000e+00
     vertex  2.029525e+01  1.565341e+01  0.000000e+00
   endloop
 endfacet
 facet normal -1.000000e+00  0.000000e+00  0.000000e+00
   outer loop
     vertex  2.029525e+01  6.792522e+00  1.000000e+00
     vertex  2.029525e+01  1.565341e+01  0.000000e+00
     vertex  2.029525e+01  6.792522e+00  0.000000e+00
   endloop
 endfacet
 facet normal  0.000000e+00  0.000000e+00 -1.000000e+00
   outer loop
     vertex  2.029525e+01  1.565341e+01  0.000000e+00
     vertex  2.549000e+01  6.792522e+00  0.000000e+00
     vertex  2.029525e+01  6.792522e+00  0.000000e+00
   endloop
 endfacet
 facet normal -0.000000e+00 -0.000000e+00 -1.000000e+00
   outer loop
     vertex  2.549000e+01  1.565341e+01  0.000000e+00
     vertex  2.549000e+01  6.792522e+00  0.000000e+00
     vertex  2.029525e+01  1.565341e+01  0.000000e+00
   endloop
 endfacet
 facet normal -0.000000e+00  1.000000e+00  0.000000e+00
   outer loop
     vertex  2.029525e+01  1.565341e+01  1.000000e+00
     vertex  2.549000e+01  1.565341e+01  1.000000e+00
     vertex  2.549000e+01  1.565341e+01  0.000000e+00
   endloop
 endfacet
 facet normal  0.000000e+00  1.000000e+00  0.000000e+00
   outer loop
     vertex  2.029525e+01  1.565341e+01  1.000000e+00
     vertex  2.549000e+01  1.565341e+01  0.000000e+00
     vertex  2.029525e+01  1.565341e+01  0.000000e+00
   endloop
 endfacet
endsolid
