solid 
 facet normal -0.000000e+00  0.000000e+00 -1.000000e+00
   outer loop
     vertex  2.394500e+01  5.718200e+01  3.610000e+00
     vertex  1.545000e+00  5.862001e+00  3.610000e+00
     vertex  1.545000e+00  5.718200e+01  3.610000e+00
   endloop
 endfacet
 facet normal  0.000000e+00 -0.000000e+00 -1.000000e+00
   outer loop
     vertex  2.394500e+01  5.718200e+01  3.610000e+00
     vertex  2.394500e+01  5.862001e+00  3.610000e+00
     vertex  1.545000e+00  5.862001e+00  3.610000e+00
   endloop
 endfacet
 facet normal -1.000000e+00  0.000000e+00  0.000000e+00
   outer loop
     vertex  1.545000e+00  5.862001e+00  4.500000e+00
     vertex  1.545000e+00  5.718200e+01  4.500000e+00
     vertex  1.545000e+00  5.718200e+01  3.610000e+00
   endloop
 endfacet
 facet normal -1.000000e+00  0.000000e+00  0.000000e+00
   outer loop
     vertex  1.545000e+00  5.862001e+00  4.500000e+00
     vertex  1.545000e+00  5.718200e+01  3.610000e+00
     vertex  1.545000e+00  5.862001e+00  3.610000e+00
   endloop
 endfacet
 facet normal  0.000000e+00  0.000000e+00 -1.000000e+00
   outer loop
     vertex  1.545000e+00  5.718200e+01  4.500000e+00
     vertex  8.420934e-01  5.648365e+01  4.500000e+00
     vertex  1.199506e+00  5.705247e+01  4.500000e+00
   endloop
 endfacet
 facet normal -0.000000e+00  0.000000e+00 -1.000000e+00
   outer loop
     vertex  1.545000e+00  5.718200e+01  4.500000e+00
     vertex  1.199506e+00  5.705247e+01  4.500000e+00
     vertex  1.674531e+00  5.752750e+01  4.500000e+00
   endloop
 endfacet
 facet normal  0.000000e+00  0.000000e+00 -1.000000e+00
   outer loop
     vertex  1.545000e+00  5.718200e+01  4.500000e+00
     vertex  1.674531e+00  5.752750e+01  4.500000e+00
     vertex  2.243349e+00  5.788491e+01  4.500000e+00
   endloop
 endfacet
 facet normal  0.000000e+00  0.000000e+00 -1.000000e+00
   outer loop
     vertex  6.202163e-01  5.584956e+01  4.500000e+00
     vertex  8.420934e-01  5.648365e+01  4.500000e+00
     vertex  1.545000e+00  5.718200e+01  4.500000e+00
   endloop
 endfacet
 facet normal  0.000000e+00  0.000000e+00 -1.000000e+00
   outer loop
     vertex  2.877437e+00  5.810678e+01  4.500000e+00
     vertex  1.545000e+00  5.718200e+01  4.500000e+00
     vertex  2.243349e+00  5.788491e+01  4.500000e+00
   endloop
 endfacet
 facet normal  0.000000e+00  0.000000e+00 -1.000000e+00
   outer loop
     vertex  5.450000e-01  5.518200e+01  4.500000e+00
     vertex  6.202163e-01  5.584956e+01  4.500000e+00
     vertex  1.545000e+00  5.718200e+01  4.500000e+00
   endloop
 endfacet
 facet normal  0.000000e+00  0.000000e+00 -1.000000e+00
   outer loop
     vertex  3.545000e+00  5.818200e+01  4.500000e+00
     vertex  1.545000e+00  5.718200e+01  4.500000e+00
     vertex  2.877437e+00  5.810678e+01  4.500000e+00
   endloop
 endfacet
 facet normal  0.000000e+00  0.000000e+00 -1.000000e+00
   outer loop
     vertex  2.394500e+01  5.718200e+01  4.500000e+00
     vertex  2.194500e+01  5.818200e+01  4.500000e+00
     vertex  2.261256e+01  5.810678e+01  4.500000e+00
   endloop
 endfacet
 facet normal  0.000000e+00  0.000000e+00 -1.000000e+00
   outer loop
     vertex  2.394500e+01  5.718200e+01  4.500000e+00
     vertex  2.261256e+01  5.810678e+01  4.500000e+00
     vertex  2.324665e+01  5.788491e+01  4.500000e+00
   endloop
 endfacet
 facet normal  0.000000e+00  0.000000e+00 -1.000000e+00
   outer loop
     vertex  2.394500e+01  5.718200e+01  4.500000e+00
     vertex  2.324665e+01  5.788491e+01  4.500000e+00
     vertex  2.381547e+01  5.752750e+01  4.500000e+00
   endloop
 endfacet
 facet normal  0.000000e+00  0.000000e+00 -1.000000e+00
   outer loop
     vertex  2.429049e+01  5.705247e+01  4.500000e+00
     vertex  2.394500e+01  5.718200e+01  4.500000e+00
     vertex  2.381547e+01  5.752750e+01  4.500000e+00
   endloop
 endfacet
 facet normal  0.000000e+00  0.000000e+00 -1.000000e+00
   outer loop
     vertex  2.464791e+01  5.648365e+01  4.500000e+00
     vertex  2.394500e+01  5.718200e+01  4.500000e+00
     vertex  2.429049e+01  5.705247e+01  4.500000e+00
   endloop
 endfacet
 facet normal  0.000000e+00  0.000000e+00 -1.000000e+00
   outer loop
     vertex  2.486978e+01  5.584956e+01  4.500000e+00
     vertex  2.394500e+01  5.718200e+01  4.500000e+00
     vertex  2.464791e+01  5.648365e+01  4.500000e+00
   endloop
 endfacet
 facet normal  0.000000e+00  0.000000e+00 -1.000000e+00
   outer loop
     vertex  2.494500e+01  5.518200e+01  4.500000e+00
     vertex  2.394500e+01  5.718200e+01  4.500000e+00
     vertex  2.486978e+01  5.584956e+01  4.500000e+00
   endloop
 endfacet
 facet normal  0.000000e+00  0.000000e+00 -1.000000e+00
   outer loop
     vertex  1.545000e+00  5.862001e+00  4.500000e+00
     vertex  1.199506e+00  5.991531e+00  4.500000e+00
     vertex  8.420934e-01  6.560350e+00  4.500000e+00
   endloop
 endfacet
 facet normal  0.000000e+00  0.000000e+00 -1.000000e+00
   outer loop
     vertex  1.545000e+00  5.862001e+00  4.500000e+00
     vertex  8.420934e-01  6.560350e+00  4.500000e+00
     vertex  6.202163e-01  7.194438e+00  4.500000e+00
   endloop
 endfacet
 facet normal  0.000000e+00  0.000000e+00 -1.000000e+00
   outer loop
     vertex  1.545000e+00  5.862001e+00  4.500000e+00
     vertex  6.202163e-01  7.194438e+00  4.500000e+00
     vertex  5.450000e-01  7.862001e+00  4.500000e+00
   endloop
 endfacet
 facet normal  0.000000e+00  0.000000e+00 -1.000000e+00
   outer loop
     vertex  1.674531e+00  5.516506e+00  4.500000e+00
     vertex  1.199506e+00  5.991531e+00  4.500000e+00
     vertex  1.545000e+00  5.862001e+00  4.500000e+00
   endloop
 endfacet
 facet normal  0.000000e+00  0.000000e+00 -1.000000e+00
   outer loop
     vertex  2.243349e+00  5.159094e+00  4.500000e+00
     vertex  1.674531e+00  5.516506e+00  4.500000e+00
     vertex  1.545000e+00  5.862001e+00  4.500000e+00
   endloop
 endfacet
 facet normal  0.000000e+00  0.000000e+00 -1.000000e+00
   outer loop
     vertex  2.877437e+00  4.937217e+00  4.500000e+00
     vertex  2.243349e+00  5.159094e+00  4.500000e+00
     vertex  1.545000e+00  5.862001e+00  4.500000e+00
   endloop
 endfacet
 facet normal  0.000000e+00  0.000000e+00 -1.000000e+00
   outer loop
     vertex  3.545000e+00  4.862001e+00  4.500000e+00
     vertex  2.877437e+00  4.937217e+00  4.500000e+00
     vertex  1.545000e+00  5.862001e+00  4.500000e+00
   endloop
 endfacet
 facet normal  0.000000e+00  0.000000e+00 -1.000000e+00
   outer loop
     vertex  2.394500e+01  5.862001e+00  4.500000e+00
     vertex  2.494500e+01  7.862001e+00  4.500000e+00
     vertex  2.486978e+01  7.194438e+00  4.500000e+00
   endloop
 endfacet
 facet normal  0.000000e+00  0.000000e+00 -1.000000e+00
   outer loop
     vertex  2.394500e+01  5.862001e+00  4.500000e+00
     vertex  2.261256e+01  4.937217e+00  4.500000e+00
     vertex  2.194500e+01  4.862001e+00  4.500000e+00
   endloop
 endfacet
 facet normal -0.000000e+00  0.000000e+00 -1.000000e+00
   outer loop
     vertex  2.464791e+01  6.560350e+00  4.500000e+00
     vertex  2.394500e+01  5.862001e+00  4.500000e+00
     vertex  2.486978e+01  7.194438e+00  4.500000e+00
   endloop
 endfacet
 facet normal -0.000000e+00  0.000000e+00 -1.000000e+00
   outer loop
     vertex  2.324665e+01  5.159094e+00  4.500000e+00
     vertex  2.261256e+01  4.937217e+00  4.500000e+00
     vertex  2.394500e+01  5.862001e+00  4.500000e+00
   endloop
 endfacet
 facet normal -0.000000e+00  0.000000e+00 -1.000000e+00
   outer loop
     vertex  2.429049e+01  5.991531e+00  4.500000e+00
     vertex  2.394500e+01  5.862001e+00  4.500000e+00
     vertex  2.464791e+01  6.560350e+00  4.500000e+00
   endloop
 endfacet
 facet normal -0.000000e+00  0.000000e+00 -1.000000e+00
   outer loop
     vertex  2.381547e+01  5.516506e+00  4.500000e+00
     vertex  2.324665e+01  5.159094e+00  4.500000e+00
     vertex  2.394500e+01  5.862001e+00  4.500000e+00
   endloop
 endfacet
 facet normal  0.000000e+00  0.000000e+00 -1.000000e+00
   outer loop
     vertex  2.381547e+01  5.516506e+00  4.500000e+00
     vertex  2.394500e+01  5.862001e+00  4.500000e+00
     vertex  2.429049e+01  5.991531e+00  4.500000e+00
   endloop
 endfacet
 facet normal  0.000000e+00  0.000000e+00 -1.000000e+00
   outer loop
     vertex  1.545000e+00  5.862001e+00  4.500000e+00
     vertex  5.450000e-01  5.518200e+01  4.500000e+00
     vertex  1.545000e+00  5.718200e+01  4.500000e+00
   endloop
 endfacet
 facet normal  0.000000e+00  0.000000e+00 -1.000000e+00
   outer loop
     vertex  1.545000e+00  5.862001e+00  4.500000e+00
     vertex  5.450000e-01  7.862001e+00  4.500000e+00
     vertex  5.450000e-01  5.518200e+01  4.500000e+00
   endloop
 endfacet
 facet normal  0.000000e+00  0.000000e+00 -1.000000e+00
   outer loop
     vertex  1.545000e+00  5.718200e+01  4.500000e+00
     vertex  2.194500e+01  5.818200e+01  4.500000e+00
     vertex  2.394500e+01  5.718200e+01  4.500000e+00
   endloop
 endfacet
 facet normal  0.000000e+00  0.000000e+00 -1.000000e+00
   outer loop
     vertex  1.545000e+00  5.718200e+01  4.500000e+00
     vertex  3.545000e+00  5.818200e+01  4.500000e+00
     vertex  2.194500e+01  5.818200e+01  4.500000e+00
   endloop
 endfacet
 facet normal  0.000000e+00  0.000000e+00 -1.000000e+00
   outer loop
     vertex  2.394500e+01  5.718200e+01  4.500000e+00
     vertex  2.494500e+01  7.862001e+00  4.500000e+00
     vertex  2.394500e+01  5.862001e+00  4.500000e+00
   endloop
 endfacet
 facet normal  0.000000e+00  0.000000e+00 -1.000000e+00
   outer loop
     vertex  2.394500e+01  5.718200e+01  4.500000e+00
     vertex  2.494500e+01  5.518200e+01  4.500000e+00
     vertex  2.494500e+01  7.862001e+00  4.500000e+00
   endloop
 endfacet
 facet normal -0.000000e+00  0.000000e+00 -1.000000e+00
   outer loop
     vertex  2.394500e+01  5.862001e+00  4.500000e+00
     vertex  3.545000e+00  4.862001e+00  4.500000e+00
     vertex  1.545000e+00  5.862001e+00  4.500000e+00
   endloop
 endfacet
 facet normal  0.000000e+00  0.000000e+00 -1.000000e+00
   outer loop
     vertex  2.394500e+01  5.862001e+00  4.500000e+00
     vertex  2.194500e+01  4.862001e+00  4.500000e+00
     vertex  3.545000e+00  4.862001e+00  4.500000e+00
   endloop
 endfacet
 facet normal -0.000000e+00  1.000000e+00  0.000000e+00
   outer loop
     vertex  1.545000e+00  5.718200e+01  4.500000e+00
     vertex  2.394500e+01  5.718200e+01  4.500000e+00
     vertex  2.394500e+01  5.718200e+01  3.610000e+00
   endloop
 endfacet
 facet normal  0.000000e+00  1.000000e+00  0.000000e+00
   outer loop
     vertex  1.545000e+00  5.718200e+01  4.500000e+00
     vertex  2.394500e+01  5.718200e+01  3.610000e+00
     vertex  1.545000e+00  5.718200e+01  3.610000e+00
   endloop
 endfacet
 facet normal  1.000000e+00  0.000000e+00  0.000000e+00
   outer loop
     vertex  2.394500e+01  5.718200e+01  4.500000e+00
     vertex  2.394500e+01  5.862001e+00  4.500000e+00
     vertex  2.394500e+01  5.862001e+00  3.610000e+00
   endloop
 endfacet
 facet normal  1.000000e+00  0.000000e+00  0.000000e+00
   outer loop
     vertex  2.394500e+01  5.718200e+01  4.500000e+00
     vertex  2.394500e+01  5.862001e+00  3.610000e+00
     vertex  2.394500e+01  5.718200e+01  3.610000e+00
   endloop
 endfacet
 facet normal -0.000000e+00 -1.000000e+00  0.000000e+00
   outer loop
     vertex  7.645000e+00  5.862001e+00  4.155000e+00
     vertex  1.545000e+00  5.862001e+00  4.500000e+00
     vertex  1.545000e+00  5.862001e+00  3.610000e+00
   endloop
 endfacet
 facet normal -0.000000e+00 -1.000000e+00 -0.000000e+00
   outer loop
     vertex  7.645000e+00  5.862001e+00  4.355000e+00
     vertex  1.545000e+00  5.862001e+00  4.500000e+00
     vertex  7.645000e+00  5.862001e+00  4.155000e+00
   endloop
 endfacet
 facet normal  0.000000e+00 -1.000000e+00  0.000000e+00
   outer loop
     vertex  1.834500e+01  5.862001e+00  3.800000e+00
     vertex  1.784500e+01  5.862001e+00  4.155000e+00
     vertex  7.645000e+00  5.862001e+00  4.155000e+00
   endloop
 endfacet
 facet normal -0.000000e+00 -1.000000e+00  0.000000e+00
   outer loop
     vertex  1.834500e+01  5.862001e+00  3.800000e+00
     vertex  7.645000e+00  5.862001e+00  4.155000e+00
     vertex  1.545000e+00  5.862001e+00  3.610000e+00
   endloop
 endfacet
 facet normal  0.000000e+00 -1.000000e+00  0.000000e+00
   outer loop
     vertex  1.834500e+01  5.862001e+00  4.000000e+00
     vertex  1.784500e+01  5.862001e+00  4.355000e+00
     vertex  1.784500e+01  5.862001e+00  4.155000e+00
   endloop
 endfacet
 facet normal -0.000000e+00 -1.000000e+00 -0.000000e+00
   outer loop
     vertex  1.834500e+01  5.862001e+00  4.000000e+00
     vertex  1.784500e+01  5.862001e+00  4.155000e+00
     vertex  1.834500e+01  5.862001e+00  3.800000e+00
   endloop
 endfacet
 facet normal  0.000000e+00 -1.000000e+00  0.000000e+00
   outer loop
     vertex  2.234500e+01  5.862001e+00  4.000000e+00
     vertex  1.784500e+01  5.862001e+00  4.355000e+00
     vertex  1.834500e+01  5.862001e+00  4.000000e+00
   endloop
 endfacet
 facet normal  0.000000e+00 -1.000000e+00  0.000000e+00
   outer loop
     vertex  2.394500e+01  5.862001e+00  3.610000e+00
     vertex  2.234500e+01  5.862001e+00  4.000000e+00
     vertex  2.234500e+01  5.862001e+00  3.800000e+00
   endloop
 endfacet
 facet normal  0.000000e+00 -1.000000e+00  0.000000e+00
   outer loop
     vertex  2.394500e+01  5.862001e+00  3.610000e+00
     vertex  2.234500e+01  5.862001e+00  3.800000e+00
     vertex  1.834500e+01  5.862001e+00  3.800000e+00
   endloop
 endfacet
 facet normal  0.000000e+00 -1.000000e+00  0.000000e+00
   outer loop
     vertex  2.394500e+01  5.862001e+00  3.610000e+00
     vertex  1.834500e+01  5.862001e+00  3.800000e+00
     vertex  1.545000e+00  5.862001e+00  3.610000e+00
   endloop
 endfacet
 facet normal  0.000000e+00 -1.000000e+00 -0.000000e+00
   outer loop
     vertex  2.394500e+01  5.862001e+00  4.500000e+00
     vertex  2.234500e+01  5.862001e+00  4.000000e+00
     vertex  2.394500e+01  5.862001e+00  3.610000e+00
   endloop
 endfacet
 facet normal  0.000000e+00 -1.000000e+00  0.000000e+00
   outer loop
     vertex  2.394500e+01  5.862001e+00  4.500000e+00
     vertex  1.784500e+01  5.862001e+00  4.355000e+00
     vertex  2.234500e+01  5.862001e+00  4.000000e+00
   endloop
 endfacet
 facet normal -0.000000e+00 -1.000000e+00  0.000000e+00
   outer loop
     vertex  2.394500e+01  5.862001e+00  4.500000e+00
     vertex  1.545000e+00  5.862001e+00  4.500000e+00
     vertex  7.645000e+00  5.862001e+00  4.355000e+00
   endloop
 endfacet
 facet normal  0.000000e+00 -1.000000e+00  0.000000e+00
   outer loop
     vertex  2.394500e+01  5.862001e+00  4.500000e+00
     vertex  7.645000e+00  5.862001e+00  4.355000e+00
     vertex  1.784500e+01  5.862001e+00  4.355000e+00
   endloop
 endfacet
 facet normal -1.000000e+00  0.000000e+00  0.000000e+00
   outer loop
     vertex  7.645000e+00 -1.998800e+01  4.355000e+00
     vertex  7.645000e+00  5.862001e+00  4.155000e+00
     vertex  7.645000e+00 -1.998800e+01  4.155000e+00
   endloop
 endfacet
 facet normal -1.000000e+00  0.000000e+00  0.000000e+00
   outer loop
     vertex  7.645000e+00 -1.998800e+01  4.355000e+00
     vertex  7.645000e+00  5.862001e+00  4.355000e+00
     vertex  7.645000e+00  5.862001e+00  4.155000e+00
   endloop
 endfacet
 facet normal  0.000000e+00  0.000000e+00  1.000000e+00
   outer loop
     vertex  1.784500e+01 -1.998800e+01  4.355000e+00
     vertex  7.645000e+00  5.862001e+00  4.355000e+00
     vertex  7.645000e+00 -1.998800e+01  4.355000e+00
   endloop
 endfacet
 facet normal  0.000000e+00 -0.000000e+00  1.000000e+00
   outer loop
     vertex  1.784500e+01 -1.998800e+01  4.355000e+00
     vertex  1.784500e+01  5.862001e+00  4.355000e+00
     vertex  7.645000e+00  5.862001e+00  4.355000e+00
   endloop
 endfacet
 facet normal  1.000000e+00  0.000000e+00  0.000000e+00
   outer loop
     vertex  1.784500e+01  5.862001e+00  4.355000e+00
     vertex  1.784500e+01 -1.998800e+01  4.355000e+00
     vertex  1.784500e+01 -1.998800e+01  4.155000e+00
   endloop
 endfacet
 facet normal  1.000000e+00  0.000000e+00  0.000000e+00
   outer loop
     vertex  1.784500e+01  5.862001e+00  4.355000e+00
     vertex  1.784500e+01 -1.998800e+01  4.155000e+00
     vertex  1.784500e+01  5.862001e+00  4.155000e+00
   endloop
 endfacet
 facet normal  0.000000e+00  0.000000e+00 -1.000000e+00
   outer loop
     vertex  1.784500e+01 -1.998800e+01  4.155000e+00
     vertex  7.645000e+00  5.862001e+00  4.155000e+00
     vertex  1.784500e+01  5.862001e+00  4.155000e+00
   endloop
 endfacet
 facet normal  0.000000e+00  0.000000e+00 -1.000000e+00
   outer loop
     vertex  1.784500e+01 -1.998800e+01  4.155000e+00
     vertex  7.645000e+00 -1.998800e+01  4.155000e+00
     vertex  7.645000e+00  5.862001e+00  4.155000e+00
   endloop
 endfacet
 facet normal -0.000000e+00 -1.000000e+00  0.000000e+00
   outer loop
     vertex  1.784500e+01 -1.998800e+01  4.355000e+00
     vertex  7.645000e+00 -1.998800e+01  4.355000e+00
     vertex  7.645000e+00 -1.998800e+01  4.155000e+00
   endloop
 endfacet
 facet normal  0.000000e+00 -1.000000e+00 -0.000000e+00
   outer loop
     vertex  1.784500e+01 -1.998800e+01  4.355000e+00
     vertex  7.645000e+00 -1.998800e+01  4.155000e+00
     vertex  1.784500e+01 -1.998800e+01  4.155000e+00
   endloop
 endfacet
 facet normal -1.000000e+00  0.000000e+00  0.000000e+00
   outer loop
     vertex  1.834500e+01 -9.137999e+00  3.800000e+00
     vertex  1.834500e+01  5.862001e+00  4.000000e+00
     vertex  1.834500e+01  5.862001e+00  3.800000e+00
   endloop
 endfacet
 facet normal -1.000000e+00  0.000000e+00  0.000000e+00
   outer loop
     vertex  1.834500e+01 -9.137999e+00  3.800000e+00
     vertex  1.834500e+01 -9.137999e+00  4.000000e+00
     vertex  1.834500e+01  5.862001e+00  4.000000e+00
   endloop
 endfacet
 facet normal  0.000000e+00  0.000000e+00  1.000000e+00
   outer loop
     vertex  1.834500e+01 -9.137999e+00  4.000000e+00
     vertex  2.234500e+01 -9.137999e+00  4.000000e+00
     vertex  2.234500e+01  5.862001e+00  4.000000e+00
   endloop
 endfacet
 facet normal  0.000000e+00  0.000000e+00  1.000000e+00
   outer loop
     vertex  1.834500e+01 -9.137999e+00  4.000000e+00
     vertex  2.234500e+01  5.862001e+00  4.000000e+00
     vertex  1.834500e+01  5.862001e+00  4.000000e+00
   endloop
 endfacet
 facet normal  1.000000e+00  0.000000e+00  0.000000e+00
   outer loop
     vertex  2.234500e+01 -9.137999e+00  4.000000e+00
     vertex  2.234500e+01 -9.137999e+00  3.800000e+00
     vertex  2.234500e+01  5.862001e+00  3.800000e+00
   endloop
 endfacet
 facet normal  1.000000e+00 -0.000000e+00  0.000000e+00
   outer loop
     vertex  2.234500e+01 -9.137999e+00  4.000000e+00
     vertex  2.234500e+01  5.862001e+00  3.800000e+00
     vertex  2.234500e+01  5.862001e+00  4.000000e+00
   endloop
 endfacet
 facet normal  0.000000e+00  0.000000e+00 -1.000000e+00
   outer loop
     vertex  2.234500e+01 -9.137999e+00  3.800000e+00
     vertex  1.834500e+01  5.862001e+00  3.800000e+00
     vertex  2.234500e+01  5.862001e+00  3.800000e+00
   endloop
 endfacet
 facet normal  0.000000e+00  0.000000e+00 -1.000000e+00
   outer loop
     vertex  2.234500e+01 -9.137999e+00  3.800000e+00
     vertex  1.834500e+01 -9.137999e+00  3.800000e+00
     vertex  1.834500e+01  5.862001e+00  3.800000e+00
   endloop
 endfacet
 facet normal -0.000000e+00 -1.000000e+00  0.000000e+00
   outer loop
     vertex  2.234500e+01 -9.137999e+00  4.000000e+00
     vertex  1.834500e+01 -9.137999e+00  4.000000e+00
     vertex  1.834500e+01 -9.137999e+00  3.800000e+00
   endloop
 endfacet
 facet normal  0.000000e+00 -1.000000e+00 -0.000000e+00
   outer loop
     vertex  2.234500e+01 -9.137999e+00  4.000000e+00
     vertex  1.834500e+01 -9.137999e+00  3.800000e+00
     vertex  2.234500e+01 -9.137999e+00  3.800000e+00
   endloop
 endfacet
 facet normal -1.119645e-01 -9.937122e-01  0.000000e+00
   outer loop
     vertex  2.877437e+00  4.937217e+00  4.500000e+00
     vertex  3.545000e+00  4.862001e+00  4.500000e+00
     vertex  3.545000e+00  4.862001e+00  5.500000e+00
   endloop
 endfacet
 facet normal -1.119645e-01 -9.937122e-01  0.000000e+00
   outer loop
     vertex  2.877437e+00  4.937217e+00  4.500000e+00
     vertex  3.545000e+00  4.862001e+00  5.500000e+00
     vertex  2.877437e+00  4.937217e+00  5.500000e+00
   endloop
 endfacet
 facet normal -3.302791e-01 -9.438833e-01  0.000000e+00
   outer loop
     vertex  2.243349e+00  5.159094e+00  4.500000e+00
     vertex  2.877437e+00  4.937217e+00  5.500000e+00
     vertex  2.243349e+00  5.159094e+00  5.500000e+00
   endloop
 endfacet
 facet normal -3.302791e-01 -9.438833e-01  0.000000e+00
   outer loop
     vertex  2.243349e+00  5.159094e+00  4.500000e+00
     vertex  2.877437e+00  4.937217e+00  4.500000e+00
     vertex  2.877437e+00  4.937217e+00  5.500000e+00
   endloop
 endfacet
 facet normal -5.320321e-01 -8.467242e-01  0.000000e+00
   outer loop
     vertex  1.674531e+00  5.516506e+00  4.500000e+00
     vertex  2.243349e+00  5.159094e+00  5.500000e+00
     vertex  1.674531e+00  5.516506e+00  5.500000e+00
   endloop
 endfacet
 facet normal -5.320321e-01 -8.467242e-01  0.000000e+00
   outer loop
     vertex  1.674531e+00  5.516506e+00  4.500000e+00
     vertex  2.243349e+00  5.159094e+00  4.500000e+00
     vertex  2.243349e+00  5.159094e+00  5.500000e+00
   endloop
 endfacet
 facet normal -7.071068e-01 -7.071068e-01  0.000000e+00
   outer loop
     vertex  1.199506e+00  5.991531e+00  4.500000e+00
     vertex  1.674531e+00  5.516506e+00  5.500000e+00
     vertex  1.199506e+00  5.991531e+00  5.500000e+00
   endloop
 endfacet
 facet normal -7.071068e-01 -7.071068e-01  0.000000e+00
   outer loop
     vertex  1.199506e+00  5.991531e+00  4.500000e+00
     vertex  1.674531e+00  5.516506e+00  4.500000e+00
     vertex  1.674531e+00  5.516506e+00  5.500000e+00
   endloop
 endfacet
 facet normal -9.438833e-01 -3.302791e-01  0.000000e+00
   outer loop
     vertex  8.420934e-01  6.560350e+00  4.500000e+00
     vertex  8.420934e-01  6.560350e+00  5.500000e+00
     vertex  6.202163e-01  7.194438e+00  5.500000e+00
   endloop
 endfacet
 facet normal -8.467242e-01 -5.320321e-01  0.000000e+00
   outer loop
     vertex  8.420934e-01  6.560350e+00  4.500000e+00
     vertex  1.199506e+00  5.991531e+00  5.500000e+00
     vertex  8.420934e-01  6.560350e+00  5.500000e+00
   endloop
 endfacet
 facet normal -8.467242e-01 -5.320321e-01  0.000000e+00
   outer loop
     vertex  8.420934e-01  6.560350e+00  4.500000e+00
     vertex  1.199506e+00  5.991531e+00  4.500000e+00
     vertex  1.199506e+00  5.991531e+00  5.500000e+00
   endloop
 endfacet
 facet normal -9.438833e-01 -3.302791e-01  0.000000e+00
   outer loop
     vertex  6.202163e-01  7.194438e+00  4.500000e+00
     vertex  8.420934e-01  6.560350e+00  4.500000e+00
     vertex  6.202163e-01  7.194438e+00  5.500000e+00
   endloop
 endfacet
 facet normal -9.937122e-01 -1.119645e-01  0.000000e+00
   outer loop
     vertex  5.450000e-01  7.862001e+00  4.500000e+00
     vertex  6.202163e-01  7.194438e+00  5.500000e+00
     vertex  5.450000e-01  7.862001e+00  5.500000e+00
   endloop
 endfacet
 facet normal -9.937122e-01 -1.119645e-01  0.000000e+00
   outer loop
     vertex  5.450000e-01  7.862001e+00  4.500000e+00
     vertex  6.202163e-01  7.194438e+00  4.500000e+00
     vertex  6.202163e-01  7.194438e+00  5.500000e+00
   endloop
 endfacet
 facet normal -1.000000e+00  0.000000e+00  0.000000e+00
   outer loop
     vertex  5.450000e-01  7.862001e+00  4.500000e+00
     vertex  5.450000e-01  5.518200e+01  5.500000e+00
     vertex  5.450000e-01  5.518200e+01  4.500000e+00
   endloop
 endfacet
 facet normal -1.000000e+00  0.000000e+00  0.000000e+00
   outer loop
     vertex  5.450000e-01  7.862001e+00  5.500000e+00
     vertex  5.450000e-01  5.518200e+01  5.500000e+00
     vertex  5.450000e-01  7.862001e+00  4.500000e+00
   endloop
 endfacet
 facet normal -9.937122e-01  1.119645e-01  0.000000e+00
   outer loop
     vertex  6.202163e-01  5.584956e+01  4.500000e+00
     vertex  5.450000e-01  5.518200e+01  4.500000e+00
     vertex  5.450000e-01  5.518200e+01  5.500000e+00
   endloop
 endfacet
 facet normal -9.937122e-01  1.119645e-01  0.000000e+00
   outer loop
     vertex  6.202163e-01  5.584956e+01  4.500000e+00
     vertex  5.450000e-01  5.518200e+01  5.500000e+00
     vertex  6.202163e-01  5.584956e+01  5.500000e+00
   endloop
 endfacet
 facet normal -9.438833e-01  3.302791e-01  0.000000e+00
   outer loop
     vertex  8.420934e-01  5.648365e+01  4.500000e+00
     vertex  6.202163e-01  5.584956e+01  5.500000e+00
     vertex  8.420934e-01  5.648365e+01  5.500000e+00
   endloop
 endfacet
 facet normal -9.438833e-01  3.302791e-01  0.000000e+00
   outer loop
     vertex  8.420934e-01  5.648365e+01  4.500000e+00
     vertex  6.202163e-01  5.584956e+01  4.500000e+00
     vertex  6.202163e-01  5.584956e+01  5.500000e+00
   endloop
 endfacet
 facet normal -8.467242e-01  5.320321e-01  0.000000e+00
   outer loop
     vertex  1.199506e+00  5.705247e+01  4.500000e+00
     vertex  8.420934e-01  5.648365e+01  5.500000e+00
     vertex  1.199506e+00  5.705247e+01  5.500000e+00
   endloop
 endfacet
 facet normal -8.467242e-01  5.320321e-01  0.000000e+00
   outer loop
     vertex  1.199506e+00  5.705247e+01  4.500000e+00
     vertex  8.420934e-01  5.648365e+01  4.500000e+00
     vertex  8.420934e-01  5.648365e+01  5.500000e+00
   endloop
 endfacet
 facet normal -7.071068e-01  7.071068e-01  0.000000e+00
   outer loop
     vertex  1.674531e+00  5.752750e+01  4.500000e+00
     vertex  1.199506e+00  5.705247e+01  5.500000e+00
     vertex  1.674531e+00  5.752750e+01  5.500000e+00
   endloop
 endfacet
 facet normal -7.071068e-01  7.071068e-01  0.000000e+00
   outer loop
     vertex  1.674531e+00  5.752750e+01  4.500000e+00
     vertex  1.199506e+00  5.705247e+01  4.500000e+00
     vertex  1.199506e+00  5.705247e+01  5.500000e+00
   endloop
 endfacet
 facet normal -3.302791e-01  9.438833e-01  0.000000e+00
   outer loop
     vertex  2.243349e+00  5.788491e+01  4.500000e+00
     vertex  2.243349e+00  5.788491e+01  5.500000e+00
     vertex  2.877437e+00  5.810678e+01  5.500000e+00
   endloop
 endfacet
 facet normal -5.320321e-01  8.467242e-01  0.000000e+00
   outer loop
     vertex  2.243349e+00  5.788491e+01  4.500000e+00
     vertex  1.674531e+00  5.752750e+01  5.500000e+00
     vertex  2.243349e+00  5.788491e+01  5.500000e+00
   endloop
 endfacet
 facet normal -5.320321e-01  8.467242e-01  0.000000e+00
   outer loop
     vertex  2.243349e+00  5.788491e+01  4.500000e+00
     vertex  1.674531e+00  5.752750e+01  4.500000e+00
     vertex  1.674531e+00  5.752750e+01  5.500000e+00
   endloop
 endfacet
 facet normal -3.302791e-01  9.438833e-01  0.000000e+00
   outer loop
     vertex  2.877437e+00  5.810678e+01  4.500000e+00
     vertex  2.243349e+00  5.788491e+01  4.500000e+00
     vertex  2.877437e+00  5.810678e+01  5.500000e+00
   endloop
 endfacet
 facet normal -1.119645e-01  9.937122e-01  0.000000e+00
   outer loop
     vertex  3.545000e+00  5.818200e+01  4.500000e+00
     vertex  2.877437e+00  5.810678e+01  5.500000e+00
     vertex  3.545000e+00  5.818200e+01  5.500000e+00
   endloop
 endfacet
 facet normal -1.119645e-01  9.937122e-01  0.000000e+00
   outer loop
     vertex  3.545000e+00  5.818200e+01  4.500000e+00
     vertex  2.877437e+00  5.810678e+01  4.500000e+00
     vertex  2.877437e+00  5.810678e+01  5.500000e+00
   endloop
 endfacet
 facet normal  0.000000e+00  1.000000e+00  0.000000e+00
   outer loop
     vertex  3.545000e+00  5.818200e+01  5.500000e+00
     vertex  2.194500e+01  5.818200e+01  4.500000e+00
     vertex  3.545000e+00  5.818200e+01  4.500000e+00
   endloop
 endfacet
 facet normal -0.000000e+00  1.000000e+00  0.000000e+00
   outer loop
     vertex  3.545000e+00  5.818200e+01  5.500000e+00
     vertex  2.194500e+01  5.818200e+01  5.500000e+00
     vertex  2.194500e+01  5.818200e+01  4.500000e+00
   endloop
 endfacet
 facet normal  1.119645e-01  9.937122e-01  0.000000e+00
   outer loop
     vertex  2.261256e+01  5.810678e+01  4.500000e+00
     vertex  2.194500e+01  5.818200e+01  4.500000e+00
     vertex  2.194500e+01  5.818200e+01  5.500000e+00
   endloop
 endfacet
 facet normal  1.119645e-01  9.937122e-01 -0.000000e+00
   outer loop
     vertex  2.261256e+01  5.810678e+01  4.500000e+00
     vertex  2.194500e+01  5.818200e+01  5.500000e+00
     vertex  2.261256e+01  5.810678e+01  5.500000e+00
   endloop
 endfacet
 facet normal  3.302791e-01  9.438833e-01 -0.000000e+00
   outer loop
     vertex  2.324665e+01  5.788491e+01  4.500000e+00
     vertex  2.261256e+01  5.810678e+01  5.500000e+00
     vertex  2.324665e+01  5.788491e+01  5.500000e+00
   endloop
 endfacet
 facet normal  3.302791e-01  9.438833e-01  0.000000e+00
   outer loop
     vertex  2.324665e+01  5.788491e+01  4.500000e+00
     vertex  2.261256e+01  5.810678e+01  4.500000e+00
     vertex  2.261256e+01  5.810678e+01  5.500000e+00
   endloop
 endfacet
 facet normal  5.320321e-01  8.467242e-01 -0.000000e+00
   outer loop
     vertex  2.381547e+01  5.752750e+01  4.500000e+00
     vertex  2.324665e+01  5.788491e+01  5.500000e+00
     vertex  2.381547e+01  5.752750e+01  5.500000e+00
   endloop
 endfacet
 facet normal  5.320321e-01  8.467242e-01  0.000000e+00
   outer loop
     vertex  2.381547e+01  5.752750e+01  4.500000e+00
     vertex  2.324665e+01  5.788491e+01  4.500000e+00
     vertex  2.324665e+01  5.788491e+01  5.500000e+00
   endloop
 endfacet
 facet normal  7.071068e-01  7.071068e-01 -0.000000e+00
   outer loop
     vertex  2.429049e+01  5.705247e+01  4.500000e+00
     vertex  2.381547e+01  5.752750e+01  5.500000e+00
     vertex  2.429049e+01  5.705247e+01  5.500000e+00
   endloop
 endfacet
 facet normal  7.071068e-01  7.071068e-01  0.000000e+00
   outer loop
     vertex  2.429049e+01  5.705247e+01  4.500000e+00
     vertex  2.381547e+01  5.752750e+01  4.500000e+00
     vertex  2.381547e+01  5.752750e+01  5.500000e+00
   endloop
 endfacet
 facet normal  9.438833e-01  3.302791e-01 -0.000000e+00
   outer loop
     vertex  2.464791e+01  5.648365e+01  4.500000e+00
     vertex  2.464791e+01  5.648365e+01  5.500000e+00
     vertex  2.486978e+01  5.584956e+01  5.500000e+00
   endloop
 endfacet
 facet normal  8.467242e-01  5.320321e-01 -0.000000e+00
   outer loop
     vertex  2.464791e+01  5.648365e+01  4.500000e+00
     vertex  2.429049e+01  5.705247e+01  5.500000e+00
     vertex  2.464791e+01  5.648365e+01  5.500000e+00
   endloop
 endfacet
 facet normal  8.467242e-01  5.320321e-01  0.000000e+00
   outer loop
     vertex  2.464791e+01  5.648365e+01  4.500000e+00
     vertex  2.429049e+01  5.705247e+01  4.500000e+00
     vertex  2.429049e+01  5.705247e+01  5.500000e+00
   endloop
 endfacet
 facet normal  9.438833e-01  3.302791e-01 -0.000000e+00
   outer loop
     vertex  2.486978e+01  5.584956e+01  4.500000e+00
     vertex  2.464791e+01  5.648365e+01  4.500000e+00
     vertex  2.486978e+01  5.584956e+01  5.500000e+00
   endloop
 endfacet
 facet normal  9.937122e-01  1.119645e-01 -0.000000e+00
   outer loop
     vertex  2.494500e+01  5.518200e+01  4.500000e+00
     vertex  2.486978e+01  5.584956e+01  5.500000e+00
     vertex  2.494500e+01  5.518200e+01  5.500000e+00
   endloop
 endfacet
 facet normal  9.937122e-01  1.119645e-01  0.000000e+00
   outer loop
     vertex  2.494500e+01  5.518200e+01  4.500000e+00
     vertex  2.486978e+01  5.584956e+01  4.500000e+00
     vertex  2.486978e+01  5.584956e+01  5.500000e+00
   endloop
 endfacet
 facet normal  1.000000e+00  0.000000e+00  0.000000e+00
   outer loop
     vertex  2.494500e+01  5.518200e+01  4.500000e+00
     vertex  2.494500e+01  7.862001e+00  5.500000e+00
     vertex  2.494500e+01  7.862001e+00  4.500000e+00
   endloop
 endfacet
 facet normal  1.000000e+00  0.000000e+00  0.000000e+00
   outer loop
     vertex  2.494500e+01  5.518200e+01  5.500000e+00
     vertex  2.494500e+01  7.862001e+00  5.500000e+00
     vertex  2.494500e+01  5.518200e+01  4.500000e+00
   endloop
 endfacet
 facet normal  9.937122e-01 -1.119645e-01  0.000000e+00
   outer loop
     vertex  2.486978e+01  7.194438e+00  4.500000e+00
     vertex  2.494500e+01  7.862001e+00  4.500000e+00
     vertex  2.494500e+01  7.862001e+00  5.500000e+00
   endloop
 endfacet
 facet normal  9.937122e-01 -1.119645e-01  0.000000e+00
   outer loop
     vertex  2.486978e+01  7.194438e+00  4.500000e+00
     vertex  2.494500e+01  7.862001e+00  5.500000e+00
     vertex  2.486978e+01  7.194438e+00  5.500000e+00
   endloop
 endfacet
 facet normal  9.438833e-01 -3.302791e-01  0.000000e+00
   outer loop
     vertex  2.464791e+01  6.560350e+00  4.500000e+00
     vertex  2.486978e+01  7.194438e+00  5.500000e+00
     vertex  2.464791e+01  6.560350e+00  5.500000e+00
   endloop
 endfacet
 facet normal  9.438833e-01 -3.302791e-01  0.000000e+00
   outer loop
     vertex  2.464791e+01  6.560350e+00  4.500000e+00
     vertex  2.486978e+01  7.194438e+00  4.500000e+00
     vertex  2.486978e+01  7.194438e+00  5.500000e+00
   endloop
 endfacet
 facet normal  8.467242e-01 -5.320321e-01  0.000000e+00
   outer loop
     vertex  2.429049e+01  5.991531e+00  4.500000e+00
     vertex  2.464791e+01  6.560350e+00  5.500000e+00
     vertex  2.429049e+01  5.991531e+00  5.500000e+00
   endloop
 endfacet
 facet normal  8.467242e-01 -5.320321e-01  0.000000e+00
   outer loop
     vertex  2.429049e+01  5.991531e+00  4.500000e+00
     vertex  2.464791e+01  6.560350e+00  4.500000e+00
     vertex  2.464791e+01  6.560350e+00  5.500000e+00
   endloop
 endfacet
 facet normal  7.071068e-01 -7.071068e-01  0.000000e+00
   outer loop
     vertex  2.381547e+01  5.516506e+00  4.500000e+00
     vertex  2.429049e+01  5.991531e+00  5.500000e+00
     vertex  2.381547e+01  5.516506e+00  5.500000e+00
   endloop
 endfacet
 facet normal  7.071068e-01 -7.071068e-01  0.000000e+00
   outer loop
     vertex  2.381547e+01  5.516506e+00  4.500000e+00
     vertex  2.429049e+01  5.991531e+00  4.500000e+00
     vertex  2.429049e+01  5.991531e+00  5.500000e+00
   endloop
 endfacet
 facet normal  3.302791e-01 -9.438833e-01  0.000000e+00
   outer loop
     vertex  2.324665e+01  5.159094e+00  4.500000e+00
     vertex  2.324665e+01  5.159094e+00  5.500000e+00
     vertex  2.261256e+01  4.937217e+00  5.500000e+00
   endloop
 endfacet
 facet normal  5.320321e-01 -8.467242e-01  0.000000e+00
   outer loop
     vertex  2.324665e+01  5.159094e+00  4.500000e+00
     vertex  2.381547e+01  5.516506e+00  5.500000e+00
     vertex  2.324665e+01  5.159094e+00  5.500000e+00
   endloop
 endfacet
 facet normal  5.320321e-01 -8.467242e-01  0.000000e+00
   outer loop
     vertex  2.324665e+01  5.159094e+00  4.500000e+00
     vertex  2.381547e+01  5.516506e+00  4.500000e+00
     vertex  2.381547e+01  5.516506e+00  5.500000e+00
   endloop
 endfacet
 facet normal  3.302791e-01 -9.438833e-01  0.000000e+00
   outer loop
     vertex  2.261256e+01  4.937217e+00  4.500000e+00
     vertex  2.324665e+01  5.159094e+00  4.500000e+00
     vertex  2.261256e+01  4.937217e+00  5.500000e+00
   endloop
 endfacet
 facet normal  1.119645e-01 -9.937122e-01  0.000000e+00
   outer loop
     vertex  2.194500e+01  4.862001e+00  4.500000e+00
     vertex  2.261256e+01  4.937217e+00  5.500000e+00
     vertex  2.194500e+01  4.862001e+00  5.500000e+00
   endloop
 endfacet
 facet normal  1.119645e-01 -9.937122e-01  0.000000e+00
   outer loop
     vertex  2.194500e+01  4.862001e+00  4.500000e+00
     vertex  2.261256e+01  4.937217e+00  4.500000e+00
     vertex  2.261256e+01  4.937217e+00  5.500000e+00
   endloop
 endfacet
 facet normal  0.000000e+00 -1.000000e+00 -0.000000e+00
   outer loop
     vertex  2.194500e+01  4.862001e+00  5.500000e+00
     vertex  3.545000e+00  4.862001e+00  4.500000e+00
     vertex  2.194500e+01  4.862001e+00  4.500000e+00
   endloop
 endfacet
 facet normal -0.000000e+00 -1.000000e+00  0.000000e+00
   outer loop
     vertex  2.194500e+01  4.862001e+00  5.500000e+00
     vertex  3.545000e+00  4.862001e+00  5.500000e+00
     vertex  3.545000e+00  4.862001e+00  4.500000e+00
   endloop
 endfacet
 facet normal  0.000000e+00  0.000000e+00  1.000000e+00
   outer loop
     vertex  8.420934e-01  5.648365e+01  5.500000e+00
     vertex  1.674531e+00  5.752750e+01  5.500000e+00
     vertex  1.199506e+00  5.705247e+01  5.500000e+00
   endloop
 endfacet
 facet normal  0.000000e+00  0.000000e+00  1.000000e+00
   outer loop
     vertex  2.877437e+00  5.810678e+01  5.500000e+00
     vertex  2.243349e+00  5.788491e+01  5.500000e+00
     vertex  1.674531e+00  5.752750e+01  5.500000e+00
   endloop
 endfacet
 facet normal  0.000000e+00  0.000000e+00  1.000000e+00
   outer loop
     vertex  5.450000e-01  5.518200e+01  5.500000e+00
     vertex  8.420934e-01  5.648365e+01  5.500000e+00
     vertex  6.202163e-01  5.584956e+01  5.500000e+00
   endloop
 endfacet
 facet normal  0.000000e+00  0.000000e+00  1.000000e+00
   outer loop
     vertex  3.545000e+00  5.818200e+01  5.500000e+00
     vertex  1.674531e+00  5.752750e+01  5.500000e+00
     vertex  8.420934e-01  5.648365e+01  5.500000e+00
   endloop
 endfacet
 facet normal  0.000000e+00  0.000000e+00  1.000000e+00
   outer loop
     vertex  3.545000e+00  5.818200e+01  5.500000e+00
     vertex  2.877437e+00  5.810678e+01  5.500000e+00
     vertex  1.674531e+00  5.752750e+01  5.500000e+00
   endloop
 endfacet
 facet normal  0.000000e+00  0.000000e+00  1.000000e+00
   outer loop
     vertex  3.545000e+00  5.818200e+01  5.500000e+00
     vertex  8.420934e-01  5.648365e+01  5.500000e+00
     vertex  5.450000e-01  5.518200e+01  5.500000e+00
   endloop
 endfacet
 facet normal  0.000000e+00  0.000000e+00  1.000000e+00
   outer loop
     vertex  2.381547e+01  5.752750e+01  5.500000e+00
     vertex  2.324665e+01  5.788491e+01  5.500000e+00
     vertex  2.261256e+01  5.810678e+01  5.500000e+00
   endloop
 endfacet
 facet normal  0.000000e+00  0.000000e+00  1.000000e+00
   outer loop
     vertex  2.486978e+01  5.584956e+01  5.500000e+00
     vertex  2.464791e+01  5.648365e+01  5.500000e+00
     vertex  2.429049e+01  5.705247e+01  5.500000e+00
   endloop
 endfacet
 facet normal  0.000000e+00  0.000000e+00  1.000000e+00
   outer loop
     vertex  2.486978e+01  5.584956e+01  5.500000e+00
     vertex  2.429049e+01  5.705247e+01  5.500000e+00
     vertex  2.381547e+01  5.752750e+01  5.500000e+00
   endloop
 endfacet
 facet normal  0.000000e+00  0.000000e+00  1.000000e+00
   outer loop
     vertex  2.494500e+01  5.518200e+01  5.500000e+00
     vertex  2.261256e+01  5.810678e+01  5.500000e+00
     vertex  2.194500e+01  5.818200e+01  5.500000e+00
   endloop
 endfacet
 facet normal  0.000000e+00  0.000000e+00  1.000000e+00
   outer loop
     vertex  2.494500e+01  5.518200e+01  5.500000e+00
     vertex  2.194500e+01  5.818200e+01  5.500000e+00
     vertex  3.545000e+00  5.818200e+01  5.500000e+00
   endloop
 endfacet
 facet normal  0.000000e+00  0.000000e+00  1.000000e+00
   outer loop
     vertex  2.494500e+01  5.518200e+01  5.500000e+00
     vertex  3.545000e+00  5.818200e+01  5.500000e+00
     vertex  5.450000e-01  5.518200e+01  5.500000e+00
   endloop
 endfacet
 facet normal  0.000000e+00  0.000000e+00  1.000000e+00
   outer loop
     vertex  2.494500e+01  5.518200e+01  5.500000e+00
     vertex  2.381547e+01  5.752750e+01  5.500000e+00
     vertex  2.261256e+01  5.810678e+01  5.500000e+00
   endloop
 endfacet
 facet normal  0.000000e+00  0.000000e+00  1.000000e+00
   outer loop
     vertex  2.494500e+01  5.518200e+01  5.500000e+00
     vertex  2.486978e+01  5.584956e+01  5.500000e+00
     vertex  2.381547e+01  5.752750e+01  5.500000e+00
   endloop
 endfacet
 facet normal  0.000000e+00  0.000000e+00  1.000000e+00
   outer loop
     vertex  1.199506e+00  5.991531e+00  5.500000e+00
     vertex  5.450000e-01  7.862001e+00  5.500000e+00
     vertex  6.202163e-01  7.194438e+00  5.500000e+00
   endloop
 endfacet
 facet normal  0.000000e+00  0.000000e+00  1.000000e+00
   outer loop
     vertex  1.199506e+00  5.991531e+00  5.500000e+00
     vertex  6.202163e-01  7.194438e+00  5.500000e+00
     vertex  8.420934e-01  6.560350e+00  5.500000e+00
   endloop
 endfacet
 facet normal  0.000000e+00  0.000000e+00  1.000000e+00
   outer loop
     vertex  2.243349e+00  5.159094e+00  5.500000e+00
     vertex  1.199506e+00  5.991531e+00  5.500000e+00
     vertex  1.674531e+00  5.516506e+00  5.500000e+00
   endloop
 endfacet
 facet normal  0.000000e+00  0.000000e+00  1.000000e+00
   outer loop
     vertex  2.877437e+00  4.937217e+00  5.500000e+00
     vertex  1.199506e+00  5.991531e+00  5.500000e+00
     vertex  2.243349e+00  5.159094e+00  5.500000e+00
   endloop
 endfacet
 facet normal  0.000000e+00  0.000000e+00  1.000000e+00
   outer loop
     vertex  2.877437e+00  4.937217e+00  5.500000e+00
     vertex  5.450000e-01  7.862001e+00  5.500000e+00
     vertex  1.199506e+00  5.991531e+00  5.500000e+00
   endloop
 endfacet
 facet normal  0.000000e+00  0.000000e+00  1.000000e+00
   outer loop
     vertex  3.545000e+00  4.862001e+00  5.500000e+00
     vertex  5.450000e-01  7.862001e+00  5.500000e+00
     vertex  2.877437e+00  4.937217e+00  5.500000e+00
   endloop
 endfacet
 facet normal  0.000000e+00  0.000000e+00  1.000000e+00
   outer loop
     vertex  1.160887e+01  9.907969e+00  5.500000e+00
     vertex  5.450000e-01  7.862001e+00  5.500000e+00
     vertex  1.124798e+01  9.588246e+00  5.500000e+00
   endloop
 endfacet
 facet normal  0.000000e+00 -0.000000e+00  1.000000e+00
   outer loop
     vertex  1.097409e+01  9.191447e+00  5.500000e+00
     vertex  1.124798e+01  9.588246e+00  5.500000e+00
     vertex  5.450000e-01  7.862001e+00  5.500000e+00
   endloop
 endfacet
 facet normal  0.000000e+00  0.000000e+00  1.000000e+00
   outer loop
     vertex  1.203579e+01  1.013203e+01  5.500000e+00
     vertex  5.450000e-01  7.862001e+00  5.500000e+00
     vertex  1.160887e+01  9.907969e+00  5.500000e+00
   endloop
 endfacet
 facet normal  0.000000e+00  0.000000e+00  1.000000e+00
   outer loop
     vertex  1.203579e+01  1.013203e+01  5.500000e+00
     vertex  5.450000e-01  5.518200e+01  5.500000e+00
     vertex  5.450000e-01  7.862001e+00  5.500000e+00
   endloop
 endfacet
 facet normal  0.000000e+00  0.000000e+00  1.000000e+00
   outer loop
     vertex  1.080312e+01  8.740632e+00  5.500000e+00
     vertex  5.450000e-01  7.862001e+00  5.500000e+00
     vertex  3.545000e+00  4.862001e+00  5.500000e+00
   endloop
 endfacet
 facet normal  0.000000e+00 -0.000000e+00  1.000000e+00
   outer loop
     vertex  1.080312e+01  8.740632e+00  5.500000e+00
     vertex  1.097409e+01  9.191447e+00  5.500000e+00
     vertex  5.450000e-01  7.862001e+00  5.500000e+00
   endloop
 endfacet
 facet normal  0.000000e+00  0.000000e+00  1.000000e+00
   outer loop
     vertex  1.250393e+01  1.024742e+01  5.500000e+00
     vertex  5.450000e-01  5.518200e+01  5.500000e+00
     vertex  1.203579e+01  1.013203e+01  5.500000e+00
   endloop
 endfacet
 facet normal  0.000000e+00 -0.000000e+00  1.000000e+00
   outer loop
     vertex  1.074500e+01  8.262001e+00  5.500000e+00
     vertex  1.080312e+01  8.740632e+00  5.500000e+00
     vertex  3.545000e+00  4.862001e+00  5.500000e+00
   endloop
 endfacet
 facet normal  0.000000e+00  0.000000e+00  1.000000e+00
   outer loop
     vertex  1.298607e+01  1.024742e+01  5.500000e+00
     vertex  5.450000e-01  5.518200e+01  5.500000e+00
     vertex  1.250393e+01  1.024742e+01  5.500000e+00
   endloop
 endfacet
 facet normal  0.000000e+00 -0.000000e+00  1.000000e+00
   outer loop
     vertex  1.298607e+01  1.024742e+01  5.500000e+00
     vertex  2.494500e+01  5.518200e+01  5.500000e+00
     vertex  5.450000e-01  5.518200e+01  5.500000e+00
   endloop
 endfacet
 facet normal  0.000000e+00  0.000000e+00  1.000000e+00
   outer loop
     vertex  1.080312e+01  7.783369e+00  5.500000e+00
     vertex  1.074500e+01  8.262001e+00  5.500000e+00
     vertex  3.545000e+00  4.862001e+00  5.500000e+00
   endloop
 endfacet
 facet normal  0.000000e+00 -0.000000e+00  1.000000e+00
   outer loop
     vertex  1.345421e+01  1.013203e+01  5.500000e+00
     vertex  2.494500e+01  5.518200e+01  5.500000e+00
     vertex  1.298607e+01  1.024742e+01  5.500000e+00
   endloop
 endfacet
 facet normal  0.000000e+00  0.000000e+00  1.000000e+00
   outer loop
     vertex  1.097409e+01  7.332554e+00  5.500000e+00
     vertex  1.080312e+01  7.783369e+00  5.500000e+00
     vertex  3.545000e+00  4.862001e+00  5.500000e+00
   endloop
 endfacet
 facet normal  0.000000e+00  0.000000e+00  1.000000e+00
   outer loop
     vertex  1.124798e+01  6.935755e+00  5.500000e+00
     vertex  1.097409e+01  7.332554e+00  5.500000e+00
     vertex  3.545000e+00  4.862001e+00  5.500000e+00
   endloop
 endfacet
 facet normal  0.000000e+00  0.000000e+00  1.000000e+00
   outer loop
     vertex  1.160887e+01  6.616033e+00  5.500000e+00
     vertex  1.124798e+01  6.935755e+00  5.500000e+00
     vertex  3.545000e+00  4.862001e+00  5.500000e+00
   endloop
 endfacet
 facet normal  0.000000e+00  0.000000e+00  1.000000e+00
   outer loop
     vertex  1.203579e+01  6.391968e+00  5.500000e+00
     vertex  1.160887e+01  6.616033e+00  5.500000e+00
     vertex  3.545000e+00  4.862001e+00  5.500000e+00
   endloop
 endfacet
 facet normal  0.000000e+00  0.000000e+00  1.000000e+00
   outer loop
     vertex  1.250393e+01  6.276583e+00  5.500000e+00
     vertex  1.203579e+01  6.391968e+00  5.500000e+00
     vertex  3.545000e+00  4.862001e+00  5.500000e+00
   endloop
 endfacet
 facet normal  0.000000e+00  0.000000e+00  1.000000e+00
   outer loop
     vertex  1.298607e+01  6.276583e+00  5.500000e+00
     vertex  1.250393e+01  6.276583e+00  5.500000e+00
     vertex  3.545000e+00  4.862001e+00  5.500000e+00
   endloop
 endfacet
 facet normal  0.000000e+00 -0.000000e+00  1.000000e+00
   outer loop
     vertex  2.494500e+01  7.862001e+00  5.500000e+00
     vertex  2.494500e+01  5.518200e+01  5.500000e+00
     vertex  1.345421e+01  1.013203e+01  5.500000e+00
   endloop
 endfacet
 facet normal  0.000000e+00  0.000000e+00  1.000000e+00
   outer loop
     vertex  2.494500e+01  7.862001e+00  5.500000e+00
     vertex  1.451591e+01  9.191447e+00  5.500000e+00
     vertex  1.468688e+01  8.740632e+00  5.500000e+00
   endloop
 endfacet
 facet normal  0.000000e+00  0.000000e+00  1.000000e+00
   outer loop
     vertex  2.494500e+01  7.862001e+00  5.500000e+00
     vertex  1.424202e+01  9.588246e+00  5.500000e+00
     vertex  1.451591e+01  9.191447e+00  5.500000e+00
   endloop
 endfacet
 facet normal  0.000000e+00  0.000000e+00  1.000000e+00
   outer loop
     vertex  2.494500e+01  7.862001e+00  5.500000e+00
     vertex  1.388113e+01  9.907969e+00  5.500000e+00
     vertex  1.424202e+01  9.588246e+00  5.500000e+00
   endloop
 endfacet
 facet normal  0.000000e+00  0.000000e+00  1.000000e+00
   outer loop
     vertex  2.494500e+01  7.862001e+00  5.500000e+00
     vertex  1.345421e+01  1.013203e+01  5.500000e+00
     vertex  1.388113e+01  9.907969e+00  5.500000e+00
   endloop
 endfacet
 facet normal  0.000000e+00 -0.000000e+00  1.000000e+00
   outer loop
     vertex  2.194500e+01  4.862001e+00  5.500000e+00
     vertex  2.494500e+01  7.862001e+00  5.500000e+00
     vertex  1.468688e+01  8.740632e+00  5.500000e+00
   endloop
 endfacet
 facet normal  0.000000e+00  0.000000e+00  1.000000e+00
   outer loop
     vertex  2.194500e+01  4.862001e+00  5.500000e+00
     vertex  1.345421e+01  6.391968e+00  5.500000e+00
     vertex  1.298607e+01  6.276583e+00  5.500000e+00
   endloop
 endfacet
 facet normal  0.000000e+00  0.000000e+00  1.000000e+00
   outer loop
     vertex  2.194500e+01  4.862001e+00  5.500000e+00
     vertex  1.298607e+01  6.276583e+00  5.500000e+00
     vertex  3.545000e+00  4.862001e+00  5.500000e+00
   endloop
 endfacet
 facet normal  0.000000e+00  0.000000e+00  1.000000e+00
   outer loop
     vertex  2.194500e+01  4.862001e+00  5.500000e+00
     vertex  1.388113e+01  6.616033e+00  5.500000e+00
     vertex  1.345421e+01  6.391968e+00  5.500000e+00
   endloop
 endfacet
 facet normal  0.000000e+00  0.000000e+00  1.000000e+00
   outer loop
     vertex  2.194500e+01  4.862001e+00  5.500000e+00
     vertex  1.424202e+01  6.935755e+00  5.500000e+00
     vertex  1.388113e+01  6.616033e+00  5.500000e+00
   endloop
 endfacet
 facet normal  0.000000e+00  0.000000e+00  1.000000e+00
   outer loop
     vertex  2.194500e+01  4.862001e+00  5.500000e+00
     vertex  1.451591e+01  7.332554e+00  5.500000e+00
     vertex  1.424202e+01  6.935755e+00  5.500000e+00
   endloop
 endfacet
 facet normal  0.000000e+00  0.000000e+00  1.000000e+00
   outer loop
     vertex  2.194500e+01  4.862001e+00  5.500000e+00
     vertex  1.468688e+01  7.783369e+00  5.500000e+00
     vertex  1.451591e+01  7.332554e+00  5.500000e+00
   endloop
 endfacet
 facet normal  0.000000e+00  0.000000e+00  1.000000e+00
   outer loop
     vertex  2.194500e+01  4.862001e+00  5.500000e+00
     vertex  1.474500e+01  8.262001e+00  5.500000e+00
     vertex  1.468688e+01  7.783369e+00  5.500000e+00
   endloop
 endfacet
 facet normal  0.000000e+00  0.000000e+00  1.000000e+00
   outer loop
     vertex  2.194500e+01  4.862001e+00  5.500000e+00
     vertex  1.468688e+01  8.740632e+00  5.500000e+00
     vertex  1.474500e+01  8.262001e+00  5.500000e+00
   endloop
 endfacet
 facet normal  0.000000e+00  0.000000e+00  1.000000e+00
   outer loop
     vertex  2.464791e+01  6.560350e+00  5.500000e+00
     vertex  2.486978e+01  7.194438e+00  5.500000e+00
     vertex  2.494500e+01  7.862001e+00  5.500000e+00
   endloop
 endfacet
 facet normal  0.000000e+00  0.000000e+00  1.000000e+00
   outer loop
     vertex  2.381547e+01  5.516506e+00  5.500000e+00
     vertex  2.194500e+01  4.862001e+00  5.500000e+00
     vertex  2.261256e+01  4.937217e+00  5.500000e+00
   endloop
 endfacet
 facet normal  0.000000e+00  0.000000e+00  1.000000e+00
   outer loop
     vertex  2.381547e+01  5.516506e+00  5.500000e+00
     vertex  2.261256e+01  4.937217e+00  5.500000e+00
     vertex  2.324665e+01  5.159094e+00  5.500000e+00
   endloop
 endfacet
 facet normal  0.000000e+00 -0.000000e+00  1.000000e+00
   outer loop
     vertex  2.429049e+01  5.991531e+00  5.500000e+00
     vertex  2.494500e+01  7.862001e+00  5.500000e+00
     vertex  2.194500e+01  4.862001e+00  5.500000e+00
   endloop
 endfacet
 facet normal  0.000000e+00  0.000000e+00  1.000000e+00
   outer loop
     vertex  2.429049e+01  5.991531e+00  5.500000e+00
     vertex  2.194500e+01  4.862001e+00  5.500000e+00
     vertex  2.381547e+01  5.516506e+00  5.500000e+00
   endloop
 endfacet
 facet normal  0.000000e+00  0.000000e+00  1.000000e+00
   outer loop
     vertex  2.429049e+01  5.991531e+00  5.500000e+00
     vertex  2.464791e+01  6.560350e+00  5.500000e+00
     vertex  2.494500e+01  7.862001e+00  5.500000e+00
   endloop
 endfacet
 facet normal  0.000000e+00  0.000000e+00  1.000000e+00
   outer loop
     vertex  1.221309e+01  9.664525e+00  5.500000e+00
     vertex  1.189290e+01  9.496477e+00  5.500000e+00
     vertex  1.162223e+01  9.256685e+00  5.500000e+00
   endloop
 endfacet
 facet normal  0.000000e+00  0.000000e+00  1.000000e+00
   outer loop
     vertex  1.327691e+01  9.664525e+00  5.500000e+00
     vertex  1.292581e+01  9.751064e+00  5.500000e+00
     vertex  1.256419e+01  9.751064e+00  5.500000e+00
   endloop
 endfacet
 facet normal  0.000000e+00  0.000000e+00  1.000000e+00
   outer loop
     vertex  1.327691e+01  9.664525e+00  5.500000e+00
     vertex  1.256419e+01  9.751064e+00  5.500000e+00
     vertex  1.221309e+01  9.664525e+00  5.500000e+00
   endloop
 endfacet
 facet normal  0.000000e+00  0.000000e+00  1.000000e+00
   outer loop
     vertex  1.386777e+01  9.256685e+00  5.500000e+00
     vertex  1.359710e+01  9.496477e+00  5.500000e+00
     vertex  1.327691e+01  9.664525e+00  5.500000e+00
   endloop
 endfacet
 facet normal  0.000000e+00  0.000000e+00  1.000000e+00
   outer loop
     vertex  1.386777e+01  9.256685e+00  5.500000e+00
     vertex  1.221309e+01  9.664525e+00  5.500000e+00
     vertex  1.162223e+01  9.256685e+00  5.500000e+00
   endloop
 endfacet
 facet normal  0.000000e+00  0.000000e+00  1.000000e+00
   outer loop
     vertex  1.386777e+01  9.256685e+00  5.500000e+00
     vertex  1.327691e+01  9.664525e+00  5.500000e+00
     vertex  1.221309e+01  9.664525e+00  5.500000e+00
   endloop
 endfacet
 facet normal  0.000000e+00  0.000000e+00  1.000000e+00
   outer loop
     vertex  1.221309e+01  6.859476e+00  5.500000e+00
     vertex  1.162223e+01  7.267317e+00  5.500000e+00
     vertex  1.189290e+01  7.027525e+00  5.500000e+00
   endloop
 endfacet
 facet normal  0.000000e+00  0.000000e+00  1.000000e+00
   outer loop
     vertex  1.420141e+01  8.620974e+00  5.500000e+00
     vertex  1.407318e+01  8.959086e+00  5.500000e+00
     vertex  1.386777e+01  9.256685e+00  5.500000e+00
   endloop
 endfacet
 facet normal  0.000000e+00  0.000000e+00  1.000000e+00
   outer loop
     vertex  1.420141e+01  8.620974e+00  5.500000e+00
     vertex  1.162223e+01  9.256685e+00  5.500000e+00
     vertex  1.141682e+01  8.959086e+00  5.500000e+00
   endloop
 endfacet
 facet normal  0.000000e+00  0.000000e+00  1.000000e+00
   outer loop
     vertex  1.420141e+01  8.620974e+00  5.500000e+00
     vertex  1.141682e+01  8.959086e+00  5.500000e+00
     vertex  1.128859e+01  8.620974e+00  5.500000e+00
   endloop
 endfacet
 facet normal  0.000000e+00  0.000000e+00  1.000000e+00
   outer loop
     vertex  1.420141e+01  8.620974e+00  5.500000e+00
     vertex  1.386777e+01  9.256685e+00  5.500000e+00
     vertex  1.162223e+01  9.256685e+00  5.500000e+00
   endloop
 endfacet
 facet normal  0.000000e+00  0.000000e+00  1.000000e+00
   outer loop
     vertex  1.424500e+01  8.262001e+00  5.500000e+00
     vertex  1.128859e+01  8.620974e+00  5.500000e+00
     vertex  1.124500e+01  8.262001e+00  5.500000e+00
   endloop
 endfacet
 facet normal  0.000000e+00  0.000000e+00  1.000000e+00
   outer loop
     vertex  1.424500e+01  8.262001e+00  5.500000e+00
     vertex  1.420141e+01  8.620974e+00  5.500000e+00
     vertex  1.128859e+01  8.620974e+00  5.500000e+00
   endloop
 endfacet
 facet normal  0.000000e+00  0.000000e+00  1.000000e+00
   outer loop
     vertex  1.292581e+01  6.772937e+00  5.500000e+00
     vertex  1.221309e+01  6.859476e+00  5.500000e+00
     vertex  1.256419e+01  6.772937e+00  5.500000e+00
   endloop
 endfacet
 facet normal  0.000000e+00  0.000000e+00  1.000000e+00
   outer loop
     vertex  1.420141e+01  7.903027e+00  5.500000e+00
     vertex  1.124500e+01  8.262001e+00  5.500000e+00
     vertex  1.128859e+01  7.903027e+00  5.500000e+00
   endloop
 endfacet
 facet normal  0.000000e+00 -0.000000e+00  1.000000e+00
   outer loop
     vertex  1.420141e+01  7.903027e+00  5.500000e+00
     vertex  1.424500e+01  8.262001e+00  5.500000e+00
     vertex  1.124500e+01  8.262001e+00  5.500000e+00
   endloop
 endfacet
 facet normal  0.000000e+00  0.000000e+00  1.000000e+00
   outer loop
     vertex  1.327691e+01  6.859476e+00  5.500000e+00
     vertex  1.221309e+01  6.859476e+00  5.500000e+00
     vertex  1.292581e+01  6.772937e+00  5.500000e+00
   endloop
 endfacet
 facet normal  0.000000e+00 -0.000000e+00  1.000000e+00
   outer loop
     vertex  1.407318e+01  7.564916e+00  5.500000e+00
     vertex  1.420141e+01  7.903027e+00  5.500000e+00
     vertex  1.128859e+01  7.903027e+00  5.500000e+00
   endloop
 endfacet
 facet normal  0.000000e+00  0.000000e+00  1.000000e+00
   outer loop
     vertex  1.386777e+01  7.267317e+00  5.500000e+00
     vertex  1.128859e+01  7.903027e+00  5.500000e+00
     vertex  1.141682e+01  7.564916e+00  5.500000e+00
   endloop
 endfacet
 facet normal  0.000000e+00  0.000000e+00  1.000000e+00
   outer loop
     vertex  1.386777e+01  7.267317e+00  5.500000e+00
     vertex  1.141682e+01  7.564916e+00  5.500000e+00
     vertex  1.162223e+01  7.267317e+00  5.500000e+00
   endloop
 endfacet
 facet normal  0.000000e+00  0.000000e+00  1.000000e+00
   outer loop
     vertex  1.386777e+01  7.267317e+00  5.500000e+00
     vertex  1.327691e+01  6.859476e+00  5.500000e+00
     vertex  1.359710e+01  7.027525e+00  5.500000e+00
   endloop
 endfacet
 facet normal  0.000000e+00  0.000000e+00  1.000000e+00
   outer loop
     vertex  1.386777e+01  7.267317e+00  5.500000e+00
     vertex  1.162223e+01  7.267317e+00  5.500000e+00
     vertex  1.221309e+01  6.859476e+00  5.500000e+00
   endloop
 endfacet
 facet normal  0.000000e+00 -0.000000e+00  1.000000e+00
   outer loop
     vertex  1.386777e+01  7.267317e+00  5.500000e+00
     vertex  1.407318e+01  7.564916e+00  5.500000e+00
     vertex  1.128859e+01  7.903027e+00  5.500000e+00
   endloop
 endfacet
 facet normal  0.000000e+00  0.000000e+00  1.000000e+00
   outer loop
     vertex  1.386777e+01  7.267317e+00  5.500000e+00
     vertex  1.221309e+01  6.859476e+00  5.500000e+00
     vertex  1.327691e+01  6.859476e+00  5.500000e+00
   endloop
 endfacet
 facet normal -9.927089e-01 -1.205367e-01  0.000000e+00
   outer loop
     vertex  1.468688e+01  8.740632e+00  5.500000e+00
     vertex  1.474500e+01  8.262001e+00  5.300000e+00
     vertex  1.474500e+01  8.262001e+00  5.500000e+00
   endloop
 endfacet
 facet normal -9.927089e-01 -1.205367e-01 -0.000000e+00
   outer loop
     vertex  1.468688e+01  8.740632e+00  5.500000e+00
     vertex  1.468688e+01  8.740632e+00  5.300000e+00
     vertex  1.474500e+01  8.262001e+00  5.300000e+00
   endloop
 endfacet
 facet normal -9.350162e-01 -3.546049e-01 -0.000000e+00
   outer loop
     vertex  1.451591e+01  9.191447e+00  5.500000e+00
     vertex  1.451591e+01  9.191447e+00  5.300000e+00
     vertex  1.468688e+01  8.740632e+00  5.300000e+00
   endloop
 endfacet
 facet normal -9.350162e-01 -3.546049e-01  0.000000e+00
   outer loop
     vertex  1.451591e+01  9.191447e+00  5.500000e+00
     vertex  1.468688e+01  8.740632e+00  5.300000e+00
     vertex  1.468688e+01  8.740632e+00  5.500000e+00
   endloop
 endfacet
 facet normal -8.229839e-01 -5.680647e-01 -0.000000e+00
   outer loop
     vertex  1.424202e+01  9.588246e+00  5.500000e+00
     vertex  1.424202e+01  9.588246e+00  5.300000e+00
     vertex  1.451591e+01  9.191447e+00  5.300000e+00
   endloop
 endfacet
 facet normal -8.229839e-01 -5.680647e-01  0.000000e+00
   outer loop
     vertex  1.424202e+01  9.588246e+00  5.500000e+00
     vertex  1.451591e+01  9.191447e+00  5.300000e+00
     vertex  1.451591e+01  9.191447e+00  5.500000e+00
   endloop
 endfacet
 facet normal -6.631227e-01 -7.485107e-01 -0.000000e+00
   outer loop
     vertex  1.388113e+01  9.907969e+00  5.500000e+00
     vertex  1.388113e+01  9.907969e+00  5.300000e+00
     vertex  1.424202e+01  9.588246e+00  5.300000e+00
   endloop
 endfacet
 facet normal -6.631227e-01 -7.485107e-01  0.000000e+00
   outer loop
     vertex  1.388113e+01  9.907969e+00  5.500000e+00
     vertex  1.424202e+01  9.588246e+00  5.300000e+00
     vertex  1.424202e+01  9.588246e+00  5.500000e+00
   endloop
 endfacet
 facet normal -4.647232e-01 -8.854560e-01 -0.000000e+00
   outer loop
     vertex  1.345421e+01  1.013203e+01  5.500000e+00
     vertex  1.345421e+01  1.013203e+01  5.300000e+00
     vertex  1.388113e+01  9.907969e+00  5.300000e+00
   endloop
 endfacet
 facet normal -4.647232e-01 -8.854560e-01  0.000000e+00
   outer loop
     vertex  1.345421e+01  1.013203e+01  5.500000e+00
     vertex  1.388113e+01  9.907969e+00  5.300000e+00
     vertex  1.388113e+01  9.907969e+00  5.500000e+00
   endloop
 endfacet
 facet normal -2.393157e-01 -9.709418e-01 -0.000000e+00
   outer loop
     vertex  1.298607e+01  1.024742e+01  5.500000e+00
     vertex  1.298607e+01  1.024742e+01  5.300000e+00
     vertex  1.345421e+01  1.013203e+01  5.300000e+00
   endloop
 endfacet
 facet normal -2.393157e-01 -9.709418e-01  0.000000e+00
   outer loop
     vertex  1.298607e+01  1.024742e+01  5.500000e+00
     vertex  1.345421e+01  1.013203e+01  5.300000e+00
     vertex  1.345421e+01  1.013203e+01  5.500000e+00
   endloop
 endfacet
 facet normal  0.000000e+00 -1.000000e+00  0.000000e+00
   outer loop
     vertex  1.250393e+01  1.024742e+01  5.500000e+00
     vertex  1.250393e+01  1.024742e+01  5.300000e+00
     vertex  1.298607e+01  1.024742e+01  5.300000e+00
   endloop
 endfacet
 facet normal  0.000000e+00 -1.000000e+00  0.000000e+00
   outer loop
     vertex  1.250393e+01  1.024742e+01  5.500000e+00
     vertex  1.298607e+01  1.024742e+01  5.300000e+00
     vertex  1.298607e+01  1.024742e+01  5.500000e+00
   endloop
 endfacet
 facet normal  2.393157e-01 -9.709418e-01  0.000000e+00
   outer loop
     vertex  1.203579e+01  1.013203e+01  5.500000e+00
     vertex  1.203579e+01  1.013203e+01  5.300000e+00
     vertex  1.250393e+01  1.024742e+01  5.300000e+00
   endloop
 endfacet
 facet normal  2.393157e-01 -9.709418e-01  0.000000e+00
   outer loop
     vertex  1.203579e+01  1.013203e+01  5.500000e+00
     vertex  1.250393e+01  1.024742e+01  5.300000e+00
     vertex  1.250393e+01  1.024742e+01  5.500000e+00
   endloop
 endfacet
 facet normal  4.647232e-01 -8.854560e-01  0.000000e+00
   outer loop
     vertex  1.160887e+01  9.907969e+00  5.500000e+00
     vertex  1.160887e+01  9.907969e+00  5.300000e+00
     vertex  1.203579e+01  1.013203e+01  5.300000e+00
   endloop
 endfacet
 facet normal  4.647232e-01 -8.854560e-01  0.000000e+00
   outer loop
     vertex  1.160887e+01  9.907969e+00  5.500000e+00
     vertex  1.203579e+01  1.013203e+01  5.300000e+00
     vertex  1.203579e+01  1.013203e+01  5.500000e+00
   endloop
 endfacet
 facet normal  6.631227e-01 -7.485107e-01  0.000000e+00
   outer loop
     vertex  1.124798e+01  9.588246e+00  5.500000e+00
     vertex  1.124798e+01  9.588246e+00  5.300000e+00
     vertex  1.160887e+01  9.907969e+00  5.300000e+00
   endloop
 endfacet
 facet normal  6.631227e-01 -7.485107e-01  0.000000e+00
   outer loop
     vertex  1.124798e+01  9.588246e+00  5.500000e+00
     vertex  1.160887e+01  9.907969e+00  5.300000e+00
     vertex  1.160887e+01  9.907969e+00  5.500000e+00
   endloop
 endfacet
 facet normal  8.229839e-01 -5.680647e-01  0.000000e+00
   outer loop
     vertex  1.097409e+01  9.191447e+00  5.500000e+00
     vertex  1.097409e+01  9.191447e+00  5.300000e+00
     vertex  1.124798e+01  9.588246e+00  5.300000e+00
   endloop
 endfacet
 facet normal  8.229839e-01 -5.680647e-01  0.000000e+00
   outer loop
     vertex  1.097409e+01  9.191447e+00  5.500000e+00
     vertex  1.124798e+01  9.588246e+00  5.300000e+00
     vertex  1.124798e+01  9.588246e+00  5.500000e+00
   endloop
 endfacet
 facet normal  9.350162e-01 -3.546049e-01  0.000000e+00
   outer loop
     vertex  1.080312e+01  8.740632e+00  5.500000e+00
     vertex  1.080312e+01  8.740632e+00  5.300000e+00
     vertex  1.097409e+01  9.191447e+00  5.300000e+00
   endloop
 endfacet
 facet normal  9.350162e-01 -3.546049e-01  0.000000e+00
   outer loop
     vertex  1.080312e+01  8.740632e+00  5.500000e+00
     vertex  1.097409e+01  9.191447e+00  5.300000e+00
     vertex  1.097409e+01  9.191447e+00  5.500000e+00
   endloop
 endfacet
 facet normal  9.927089e-01 -1.205367e-01  0.000000e+00
   outer loop
     vertex  1.074500e+01  8.262001e+00  5.500000e+00
     vertex  1.074500e+01  8.262001e+00  5.300000e+00
     vertex  1.080312e+01  8.740632e+00  5.300000e+00
   endloop
 endfacet
 facet normal  9.927089e-01 -1.205367e-01  0.000000e+00
   outer loop
     vertex  1.074500e+01  8.262001e+00  5.500000e+00
     vertex  1.080312e+01  8.740632e+00  5.300000e+00
     vertex  1.080312e+01  8.740632e+00  5.500000e+00
   endloop
 endfacet
 facet normal  9.927089e-01  1.205367e-01  0.000000e+00
   outer loop
     vertex  1.080312e+01  7.783369e+00  5.500000e+00
     vertex  1.074500e+01  8.262001e+00  5.300000e+00
     vertex  1.074500e+01  8.262001e+00  5.500000e+00
   endloop
 endfacet
 facet normal  9.927089e-01  1.205367e-01  0.000000e+00
   outer loop
     vertex  1.080312e+01  7.783369e+00  5.500000e+00
     vertex  1.080312e+01  7.783369e+00  5.300000e+00
     vertex  1.074500e+01  8.262001e+00  5.300000e+00
   endloop
 endfacet
 facet normal  9.350162e-01  3.546049e-01  0.000000e+00
   outer loop
     vertex  1.097409e+01  7.332554e+00  5.500000e+00
     vertex  1.097409e+01  7.332554e+00  5.300000e+00
     vertex  1.080312e+01  7.783369e+00  5.300000e+00
   endloop
 endfacet
 facet normal  9.350162e-01  3.546049e-01  0.000000e+00
   outer loop
     vertex  1.097409e+01  7.332554e+00  5.500000e+00
     vertex  1.080312e+01  7.783369e+00  5.300000e+00
     vertex  1.080312e+01  7.783369e+00  5.500000e+00
   endloop
 endfacet
 facet normal  8.229839e-01  5.680647e-01  0.000000e+00
   outer loop
     vertex  1.124798e+01  6.935755e+00  5.500000e+00
     vertex  1.124798e+01  6.935755e+00  5.300000e+00
     vertex  1.097409e+01  7.332554e+00  5.300000e+00
   endloop
 endfacet
 facet normal  8.229839e-01  5.680647e-01  0.000000e+00
   outer loop
     vertex  1.124798e+01  6.935755e+00  5.500000e+00
     vertex  1.097409e+01  7.332554e+00  5.300000e+00
     vertex  1.097409e+01  7.332554e+00  5.500000e+00
   endloop
 endfacet
 facet normal  6.631227e-01  7.485107e-01  0.000000e+00
   outer loop
     vertex  1.160887e+01  6.616033e+00  5.500000e+00
     vertex  1.160887e+01  6.616033e+00  5.300000e+00
     vertex  1.124798e+01  6.935755e+00  5.300000e+00
   endloop
 endfacet
 facet normal  6.631227e-01  7.485107e-01  0.000000e+00
   outer loop
     vertex  1.160887e+01  6.616033e+00  5.500000e+00
     vertex  1.124798e+01  6.935755e+00  5.300000e+00
     vertex  1.124798e+01  6.935755e+00  5.500000e+00
   endloop
 endfacet
 facet normal  4.647232e-01  8.854560e-01  0.000000e+00
   outer loop
     vertex  1.203579e+01  6.391968e+00  5.500000e+00
     vertex  1.203579e+01  6.391968e+00  5.300000e+00
     vertex  1.160887e+01  6.616033e+00  5.300000e+00
   endloop
 endfacet
 facet normal  4.647232e-01  8.854560e-01  0.000000e+00
   outer loop
     vertex  1.203579e+01  6.391968e+00  5.500000e+00
     vertex  1.160887e+01  6.616033e+00  5.300000e+00
     vertex  1.160887e+01  6.616033e+00  5.500000e+00
   endloop
 endfacet
 facet normal  2.393157e-01  9.709418e-01  0.000000e+00
   outer loop
     vertex  1.250393e+01  6.276583e+00  5.500000e+00
     vertex  1.250393e+01  6.276583e+00  5.300000e+00
     vertex  1.203579e+01  6.391968e+00  5.300000e+00
   endloop
 endfacet
 facet normal  2.393157e-01  9.709418e-01  0.000000e+00
   outer loop
     vertex  1.250393e+01  6.276583e+00  5.500000e+00
     vertex  1.203579e+01  6.391968e+00  5.300000e+00
     vertex  1.203579e+01  6.391968e+00  5.500000e+00
   endloop
 endfacet
 facet normal  0.000000e+00  1.000000e+00  0.000000e+00
   outer loop
     vertex  1.298607e+01  6.276583e+00  5.500000e+00
     vertex  1.298607e+01  6.276583e+00  5.300000e+00
     vertex  1.250393e+01  6.276583e+00  5.300000e+00
   endloop
 endfacet
 facet normal  0.000000e+00  1.000000e+00  0.000000e+00
   outer loop
     vertex  1.298607e+01  6.276583e+00  5.500000e+00
     vertex  1.250393e+01  6.276583e+00  5.300000e+00
     vertex  1.250393e+01  6.276583e+00  5.500000e+00
   endloop
 endfacet
 facet normal -2.393157e-01  9.709418e-01  0.000000e+00
   outer loop
     vertex  1.345421e+01  6.391968e+00  5.500000e+00
     vertex  1.345421e+01  6.391968e+00  5.300000e+00
     vertex  1.298607e+01  6.276583e+00  5.300000e+00
   endloop
 endfacet
 facet normal -2.393157e-01  9.709418e-01  0.000000e+00
   outer loop
     vertex  1.345421e+01  6.391968e+00  5.500000e+00
     vertex  1.298607e+01  6.276583e+00  5.300000e+00
     vertex  1.298607e+01  6.276583e+00  5.500000e+00
   endloop
 endfacet
 facet normal -4.647232e-01  8.854560e-01  0.000000e+00
   outer loop
     vertex  1.388113e+01  6.616033e+00  5.500000e+00
     vertex  1.388113e+01  6.616033e+00  5.300000e+00
     vertex  1.345421e+01  6.391968e+00  5.300000e+00
   endloop
 endfacet
 facet normal -4.647232e-01  8.854560e-01  0.000000e+00
   outer loop
     vertex  1.388113e+01  6.616033e+00  5.500000e+00
     vertex  1.345421e+01  6.391968e+00  5.300000e+00
     vertex  1.345421e+01  6.391968e+00  5.500000e+00
   endloop
 endfacet
 facet normal -6.631227e-01  7.485107e-01  0.000000e+00
   outer loop
     vertex  1.424202e+01  6.935755e+00  5.500000e+00
     vertex  1.424202e+01  6.935755e+00  5.300000e+00
     vertex  1.388113e+01  6.616033e+00  5.300000e+00
   endloop
 endfacet
 facet normal -6.631227e-01  7.485107e-01  0.000000e+00
   outer loop
     vertex  1.424202e+01  6.935755e+00  5.500000e+00
     vertex  1.388113e+01  6.616033e+00  5.300000e+00
     vertex  1.388113e+01  6.616033e+00  5.500000e+00
   endloop
 endfacet
 facet normal -8.229839e-01  5.680647e-01  0.000000e+00
   outer loop
     vertex  1.451591e+01  7.332554e+00  5.500000e+00
     vertex  1.451591e+01  7.332554e+00  5.300000e+00
     vertex  1.424202e+01  6.935755e+00  5.300000e+00
   endloop
 endfacet
 facet normal -8.229839e-01  5.680647e-01  0.000000e+00
   outer loop
     vertex  1.451591e+01  7.332554e+00  5.500000e+00
     vertex  1.424202e+01  6.935755e+00  5.300000e+00
     vertex  1.424202e+01  6.935755e+00  5.500000e+00
   endloop
 endfacet
 facet normal -9.350162e-01  3.546049e-01  0.000000e+00
   outer loop
     vertex  1.468688e+01  7.783369e+00  5.500000e+00
     vertex  1.468688e+01  7.783369e+00  5.300000e+00
     vertex  1.451591e+01  7.332554e+00  5.300000e+00
   endloop
 endfacet
 facet normal -9.350162e-01  3.546049e-01  0.000000e+00
   outer loop
     vertex  1.468688e+01  7.783369e+00  5.500000e+00
     vertex  1.451591e+01  7.332554e+00  5.300000e+00
     vertex  1.451591e+01  7.332554e+00  5.500000e+00
   endloop
 endfacet
 facet normal -9.927089e-01  1.205367e-01  0.000000e+00
   outer loop
     vertex  1.474500e+01  8.262001e+00  5.500000e+00
     vertex  1.474500e+01  8.262001e+00  5.300000e+00
     vertex  1.468688e+01  7.783369e+00  5.300000e+00
   endloop
 endfacet
 facet normal -9.927089e-01  1.205367e-01  0.000000e+00
   outer loop
     vertex  1.474500e+01  8.262001e+00  5.500000e+00
     vertex  1.468688e+01  7.783369e+00  5.300000e+00
     vertex  1.468688e+01  7.783369e+00  5.500000e+00
   endloop
 endfacet
 facet normal  0.000000e+00  0.000000e+00  1.000000e+00
   outer loop
     vertex  1.162223e+01  7.267317e+00  5.300000e+00
     vertex  1.124798e+01  6.935755e+00  5.300000e+00
     vertex  1.160887e+01  6.616033e+00  5.300000e+00
   endloop
 endfacet
 facet normal  0.000000e+00  0.000000e+00  1.000000e+00
   outer loop
     vertex  1.189290e+01  7.027525e+00  5.300000e+00
     vertex  1.160887e+01  6.616033e+00  5.300000e+00
     vertex  1.203579e+01  6.391968e+00  5.300000e+00
   endloop
 endfacet
 facet normal  0.000000e+00  0.000000e+00  1.000000e+00
   outer loop
     vertex  1.189290e+01  7.027525e+00  5.300000e+00
     vertex  1.162223e+01  7.267317e+00  5.300000e+00
     vertex  1.160887e+01  6.616033e+00  5.300000e+00
   endloop
 endfacet
 facet normal  0.000000e+00  0.000000e+00  1.000000e+00
   outer loop
     vertex  1.141682e+01  7.564916e+00  5.300000e+00
     vertex  1.097409e+01  7.332554e+00  5.300000e+00
     vertex  1.124798e+01  6.935755e+00  5.300000e+00
   endloop
 endfacet
 facet normal  0.000000e+00  0.000000e+00  1.000000e+00
   outer loop
     vertex  1.141682e+01  7.564916e+00  5.300000e+00
     vertex  1.124798e+01  6.935755e+00  5.300000e+00
     vertex  1.162223e+01  7.267317e+00  5.300000e+00
   endloop
 endfacet
 facet normal  0.000000e+00  0.000000e+00  1.000000e+00
   outer loop
     vertex  1.221309e+01  6.859476e+00  5.300000e+00
     vertex  1.189290e+01  7.027525e+00  5.300000e+00
     vertex  1.203579e+01  6.391968e+00  5.300000e+00
   endloop
 endfacet
 facet normal  0.000000e+00  0.000000e+00  1.000000e+00
   outer loop
     vertex  1.128859e+01  7.903027e+00  5.300000e+00
     vertex  1.080312e+01  7.783369e+00  5.300000e+00
     vertex  1.097409e+01  7.332554e+00  5.300000e+00
   endloop
 endfacet
 facet normal  0.000000e+00  0.000000e+00  1.000000e+00
   outer loop
     vertex  1.128859e+01  7.903027e+00  5.300000e+00
     vertex  1.097409e+01  7.332554e+00  5.300000e+00
     vertex  1.141682e+01  7.564916e+00  5.300000e+00
   endloop
 endfacet
 facet normal  0.000000e+00  0.000000e+00  1.000000e+00
   outer loop
     vertex  1.256419e+01  6.772937e+00  5.300000e+00
     vertex  1.203579e+01  6.391968e+00  5.300000e+00
     vertex  1.250393e+01  6.276583e+00  5.300000e+00
   endloop
 endfacet
 facet normal  0.000000e+00  0.000000e+00  1.000000e+00
   outer loop
     vertex  1.256419e+01  6.772937e+00  5.300000e+00
     vertex  1.250393e+01  6.276583e+00  5.300000e+00
     vertex  1.298607e+01  6.276583e+00  5.300000e+00
   endloop
 endfacet
 facet normal  0.000000e+00  0.000000e+00  1.000000e+00
   outer loop
     vertex  1.256419e+01  6.772937e+00  5.300000e+00
     vertex  1.221309e+01  6.859476e+00  5.300000e+00
     vertex  1.203579e+01  6.391968e+00  5.300000e+00
   endloop
 endfacet
 facet normal  0.000000e+00  0.000000e+00  1.000000e+00
   outer loop
     vertex  1.124500e+01  8.262001e+00  5.300000e+00
     vertex  1.074500e+01  8.262001e+00  5.300000e+00
     vertex  1.080312e+01  7.783369e+00  5.300000e+00
   endloop
 endfacet
 facet normal  0.000000e+00  0.000000e+00  1.000000e+00
   outer loop
     vertex  1.124500e+01  8.262001e+00  5.300000e+00
     vertex  1.080312e+01  7.783369e+00  5.300000e+00
     vertex  1.128859e+01  7.903027e+00  5.300000e+00
   endloop
 endfacet
 facet normal  0.000000e+00  0.000000e+00  1.000000e+00
   outer loop
     vertex  1.292581e+01  6.772937e+00  5.300000e+00
     vertex  1.256419e+01  6.772937e+00  5.300000e+00
     vertex  1.298607e+01  6.276583e+00  5.300000e+00
   endloop
 endfacet
 facet normal  0.000000e+00  0.000000e+00  1.000000e+00
   outer loop
     vertex  1.345421e+01  6.391968e+00  5.300000e+00
     vertex  1.292581e+01  6.772937e+00  5.300000e+00
     vertex  1.298607e+01  6.276583e+00  5.300000e+00
   endloop
 endfacet
 facet normal  0.000000e+00  0.000000e+00  1.000000e+00
   outer loop
     vertex  1.128859e+01  8.620974e+00  5.300000e+00
     vertex  1.080312e+01  8.740632e+00  5.300000e+00
     vertex  1.074500e+01  8.262001e+00  5.300000e+00
   endloop
 endfacet
 facet normal  0.000000e+00  0.000000e+00  1.000000e+00
   outer loop
     vertex  1.128859e+01  8.620974e+00  5.300000e+00
     vertex  1.074500e+01  8.262001e+00  5.300000e+00
     vertex  1.124500e+01  8.262001e+00  5.300000e+00
   endloop
 endfacet
 facet normal  0.000000e+00  0.000000e+00  1.000000e+00
   outer loop
     vertex  1.327691e+01  6.859476e+00  5.300000e+00
     vertex  1.292581e+01  6.772937e+00  5.300000e+00
     vertex  1.345421e+01  6.391968e+00  5.300000e+00
   endloop
 endfacet
 facet normal  0.000000e+00  0.000000e+00  1.000000e+00
   outer loop
     vertex  1.141682e+01  8.959086e+00  5.300000e+00
     vertex  1.097409e+01  9.191447e+00  5.300000e+00
     vertex  1.080312e+01  8.740632e+00  5.300000e+00
   endloop
 endfacet
 facet normal  0.000000e+00  0.000000e+00  1.000000e+00
   outer loop
     vertex  1.141682e+01  8.959086e+00  5.300000e+00
     vertex  1.080312e+01  8.740632e+00  5.300000e+00
     vertex  1.128859e+01  8.620974e+00  5.300000e+00
   endloop
 endfacet
 facet normal  0.000000e+00  0.000000e+00  1.000000e+00
   outer loop
     vertex  1.359710e+01  7.027525e+00  5.300000e+00
     vertex  1.345421e+01  6.391968e+00  5.300000e+00
     vertex  1.388113e+01  6.616033e+00  5.300000e+00
   endloop
 endfacet
 facet normal  0.000000e+00  0.000000e+00  1.000000e+00
   outer loop
     vertex  1.359710e+01  7.027525e+00  5.300000e+00
     vertex  1.327691e+01  6.859476e+00  5.300000e+00
     vertex  1.345421e+01  6.391968e+00  5.300000e+00
   endloop
 endfacet
 facet normal  0.000000e+00  0.000000e+00  1.000000e+00
   outer loop
     vertex  1.124798e+01  9.588246e+00  5.300000e+00
     vertex  1.097409e+01  9.191447e+00  5.300000e+00
     vertex  1.141682e+01  8.959086e+00  5.300000e+00
   endloop
 endfacet
 facet normal  0.000000e+00  0.000000e+00  1.000000e+00
   outer loop
     vertex  1.162223e+01  9.256685e+00  5.300000e+00
     vertex  1.124798e+01  9.588246e+00  5.300000e+00
     vertex  1.141682e+01  8.959086e+00  5.300000e+00
   endloop
 endfacet
 facet normal  0.000000e+00  0.000000e+00  1.000000e+00
   outer loop
     vertex  1.424202e+01  6.935755e+00  5.300000e+00
     vertex  1.386777e+01  7.267317e+00  5.300000e+00
     vertex  1.359710e+01  7.027525e+00  5.300000e+00
   endloop
 endfacet
 facet normal  0.000000e+00  0.000000e+00  1.000000e+00
   outer loop
     vertex  1.424202e+01  6.935755e+00  5.300000e+00
     vertex  1.359710e+01  7.027525e+00  5.300000e+00
     vertex  1.388113e+01  6.616033e+00  5.300000e+00
   endloop
 endfacet
 facet normal  0.000000e+00  0.000000e+00  1.000000e+00
   outer loop
     vertex  1.160887e+01  9.907969e+00  5.300000e+00
     vertex  1.124798e+01  9.588246e+00  5.300000e+00
     vertex  1.162223e+01  9.256685e+00  5.300000e+00
   endloop
 endfacet
 facet normal  0.000000e+00  0.000000e+00  1.000000e+00
   outer loop
     vertex  1.160887e+01  9.907969e+00  5.300000e+00
     vertex  1.162223e+01  9.256685e+00  5.300000e+00
     vertex  1.189290e+01  9.496477e+00  5.300000e+00
   endloop
 endfacet
 facet normal  0.000000e+00  0.000000e+00  1.000000e+00
   outer loop
     vertex  1.407318e+01  7.564916e+00  5.300000e+00
     vertex  1.386777e+01  7.267317e+00  5.300000e+00
     vertex  1.424202e+01  6.935755e+00  5.300000e+00
   endloop
 endfacet
 facet normal  0.000000e+00  0.000000e+00  1.000000e+00
   outer loop
     vertex  1.451591e+01  7.332554e+00  5.300000e+00
     vertex  1.407318e+01  7.564916e+00  5.300000e+00
     vertex  1.424202e+01  6.935755e+00  5.300000e+00
   endloop
 endfacet
 facet normal  0.000000e+00  0.000000e+00  1.000000e+00
   outer loop
     vertex  1.420141e+01  7.903027e+00  5.300000e+00
     vertex  1.407318e+01  7.564916e+00  5.300000e+00
     vertex  1.451591e+01  7.332554e+00  5.300000e+00
   endloop
 endfacet
 facet normal  0.000000e+00  0.000000e+00  1.000000e+00
   outer loop
     vertex  1.203579e+01  1.013203e+01  5.300000e+00
     vertex  1.160887e+01  9.907969e+00  5.300000e+00
     vertex  1.189290e+01  9.496477e+00  5.300000e+00
   endloop
 endfacet
 facet normal  0.000000e+00  0.000000e+00  1.000000e+00
   outer loop
     vertex  1.203579e+01  1.013203e+01  5.300000e+00
     vertex  1.189290e+01  9.496477e+00  5.300000e+00
     vertex  1.221309e+01  9.664525e+00  5.300000e+00
   endloop
 endfacet
 facet normal  0.000000e+00  0.000000e+00  1.000000e+00
   outer loop
     vertex  1.468688e+01  7.783369e+00  5.300000e+00
     vertex  1.420141e+01  7.903027e+00  5.300000e+00
     vertex  1.451591e+01  7.332554e+00  5.300000e+00
   endloop
 endfacet
 facet normal  0.000000e+00  0.000000e+00  1.000000e+00
   outer loop
     vertex  1.250393e+01  1.024742e+01  5.300000e+00
     vertex  1.203579e+01  1.013203e+01  5.300000e+00
     vertex  1.221309e+01  9.664525e+00  5.300000e+00
   endloop
 endfacet
 facet normal  0.000000e+00  0.000000e+00  1.000000e+00
   outer loop
     vertex  1.250393e+01  1.024742e+01  5.300000e+00
     vertex  1.221309e+01  9.664525e+00  5.300000e+00
     vertex  1.256419e+01  9.751064e+00  5.300000e+00
   endloop
 endfacet
 facet normal  0.000000e+00  0.000000e+00  1.000000e+00
   outer loop
     vertex  1.250393e+01  1.024742e+01  5.300000e+00
     vertex  1.256419e+01  9.751064e+00  5.300000e+00
     vertex  1.292581e+01  9.751064e+00  5.300000e+00
   endloop
 endfacet
 facet normal  0.000000e+00  0.000000e+00  1.000000e+00
   outer loop
     vertex  1.474500e+01  8.262001e+00  5.300000e+00
     vertex  1.420141e+01  7.903027e+00  5.300000e+00
     vertex  1.468688e+01  7.783369e+00  5.300000e+00
   endloop
 endfacet
 facet normal  0.000000e+00  0.000000e+00  1.000000e+00
   outer loop
     vertex  1.474500e+01  8.262001e+00  5.300000e+00
     vertex  1.424500e+01  8.262001e+00  5.300000e+00
     vertex  1.420141e+01  7.903027e+00  5.300000e+00
   endloop
 endfacet
 facet normal  0.000000e+00  0.000000e+00  1.000000e+00
   outer loop
     vertex  1.298607e+01  1.024742e+01  5.300000e+00
     vertex  1.250393e+01  1.024742e+01  5.300000e+00
     vertex  1.292581e+01  9.751064e+00  5.300000e+00
   endloop
 endfacet
 facet normal  0.000000e+00  0.000000e+00  1.000000e+00
   outer loop
     vertex  1.468688e+01  8.740632e+00  5.300000e+00
     vertex  1.420141e+01  8.620974e+00  5.300000e+00
     vertex  1.424500e+01  8.262001e+00  5.300000e+00
   endloop
 endfacet
 facet normal  0.000000e+00  0.000000e+00  1.000000e+00
   outer loop
     vertex  1.468688e+01  8.740632e+00  5.300000e+00
     vertex  1.424500e+01  8.262001e+00  5.300000e+00
     vertex  1.474500e+01  8.262001e+00  5.300000e+00
   endloop
 endfacet
 facet normal  0.000000e+00  0.000000e+00  1.000000e+00
   outer loop
     vertex  1.345421e+01  1.013203e+01  5.300000e+00
     vertex  1.292581e+01  9.751064e+00  5.300000e+00
     vertex  1.327691e+01  9.664525e+00  5.300000e+00
   endloop
 endfacet
 facet normal  0.000000e+00  0.000000e+00  1.000000e+00
   outer loop
     vertex  1.345421e+01  1.013203e+01  5.300000e+00
     vertex  1.298607e+01  1.024742e+01  5.300000e+00
     vertex  1.292581e+01  9.751064e+00  5.300000e+00
   endloop
 endfacet
 facet normal  0.000000e+00  0.000000e+00  1.000000e+00
   outer loop
     vertex  1.451591e+01  9.191447e+00  5.300000e+00
     vertex  1.407318e+01  8.959086e+00  5.300000e+00
     vertex  1.420141e+01  8.620974e+00  5.300000e+00
   endloop
 endfacet
 facet normal  0.000000e+00  0.000000e+00  1.000000e+00
   outer loop
     vertex  1.451591e+01  9.191447e+00  5.300000e+00
     vertex  1.420141e+01  8.620974e+00  5.300000e+00
     vertex  1.468688e+01  8.740632e+00  5.300000e+00
   endloop
 endfacet
 facet normal  0.000000e+00  0.000000e+00  1.000000e+00
   outer loop
     vertex  1.388113e+01  9.907969e+00  5.300000e+00
     vertex  1.327691e+01  9.664525e+00  5.300000e+00
     vertex  1.359710e+01  9.496477e+00  5.300000e+00
   endloop
 endfacet
 facet normal  0.000000e+00  0.000000e+00  1.000000e+00
   outer loop
     vertex  1.388113e+01  9.907969e+00  5.300000e+00
     vertex  1.359710e+01  9.496477e+00  5.300000e+00
     vertex  1.386777e+01  9.256685e+00  5.300000e+00
   endloop
 endfacet
 facet normal  0.000000e+00  0.000000e+00  1.000000e+00
   outer loop
     vertex  1.388113e+01  9.907969e+00  5.300000e+00
     vertex  1.345421e+01  1.013203e+01  5.300000e+00
     vertex  1.327691e+01  9.664525e+00  5.300000e+00
   endloop
 endfacet
 facet normal  0.000000e+00  0.000000e+00  1.000000e+00
   outer loop
     vertex  1.424202e+01  9.588246e+00  5.300000e+00
     vertex  1.407318e+01  8.959086e+00  5.300000e+00
     vertex  1.451591e+01  9.191447e+00  5.300000e+00
   endloop
 endfacet
 facet normal  0.000000e+00  0.000000e+00  1.000000e+00
   outer loop
     vertex  1.424202e+01  9.588246e+00  5.300000e+00
     vertex  1.386777e+01  9.256685e+00  5.300000e+00
     vertex  1.407318e+01  8.959086e+00  5.300000e+00
   endloop
 endfacet
 facet normal  0.000000e+00  0.000000e+00  1.000000e+00
   outer loop
     vertex  1.424202e+01  9.588246e+00  5.300000e+00
     vertex  1.388113e+01  9.907969e+00  5.300000e+00
     vertex  1.386777e+01  9.256685e+00  5.300000e+00
   endloop
 endfacet
 facet normal -9.927089e-01 -1.205367e-01  0.000000e+00
   outer loop
     vertex  1.128859e+01  7.903027e+00  5.500000e+00
     vertex  1.124500e+01  8.262001e+00  5.500000e+00
     vertex  1.124500e+01  8.262001e+00  5.300000e+00
   endloop
 endfacet
 facet normal -9.927089e-01 -1.205367e-01  2.141162e-15
   outer loop
     vertex  1.128859e+01  7.903027e+00  5.500000e+00
     vertex  1.124500e+01  8.262001e+00  5.300000e+00
     vertex  1.128859e+01  7.903027e+00  5.300000e+00
   endloop
 endfacet
 facet normal -9.350162e-01 -3.546049e-01 -8.304612e-15
   outer loop
     vertex  1.141682e+01  7.564916e+00  5.500000e+00
     vertex  1.128859e+01  7.903027e+00  5.300000e+00
     vertex  1.141682e+01  7.564916e+00  5.300000e+00
   endloop
 endfacet
 facet normal -9.350162e-01 -3.546049e-01  6.236388e-15
   outer loop
     vertex  1.141682e+01  7.564916e+00  5.500000e+00
     vertex  1.128859e+01  7.903027e+00  5.500000e+00
     vertex  1.128859e+01  7.903027e+00  5.300000e+00
   endloop
 endfacet
 facet normal -8.229839e-01 -5.680647e-01 -0.000000e+00
   outer loop
     vertex  1.162223e+01  7.267317e+00  5.500000e+00
     vertex  1.141682e+01  7.564916e+00  5.300000e+00
     vertex  1.162223e+01  7.267317e+00  5.300000e+00
   endloop
 endfacet
 facet normal -8.229839e-01 -5.680647e-01 -7.291777e-15
   outer loop
     vertex  1.162223e+01  7.267317e+00  5.500000e+00
     vertex  1.141682e+01  7.564916e+00  5.500000e+00
     vertex  1.141682e+01  7.564916e+00  5.300000e+00
   endloop
 endfacet
 facet normal -6.631227e-01 -7.485107e-01 -0.000000e+00
   outer loop
     vertex  1.189290e+01  7.027525e+00  5.500000e+00
     vertex  1.162223e+01  7.267317e+00  5.300000e+00
     vertex  1.189290e+01  7.027525e+00  5.300000e+00
   endloop
 endfacet
 facet normal -6.631227e-01 -7.485107e-01  0.000000e+00
   outer loop
     vertex  1.189290e+01  7.027525e+00  5.500000e+00
     vertex  1.162223e+01  7.267317e+00  5.500000e+00
     vertex  1.162223e+01  7.267317e+00  5.300000e+00
   endloop
 endfacet
 facet normal -4.647232e-01 -8.854560e-01 -4.127571e-15
   outer loop
     vertex  1.221309e+01  6.859476e+00  5.500000e+00
     vertex  1.189290e+01  7.027525e+00  5.300000e+00
     vertex  1.221309e+01  6.859476e+00  5.300000e+00
   endloop
 endfacet
 facet normal -4.647232e-01 -8.854560e-01  0.000000e+00
   outer loop
     vertex  1.221309e+01  6.859476e+00  5.500000e+00
     vertex  1.189290e+01  7.027525e+00  5.500000e+00
     vertex  1.189290e+01  7.027525e+00  5.300000e+00
   endloop
 endfacet
 facet normal -2.393157e-01 -9.709418e-01 -2.125550e-15
   outer loop
     vertex  1.256419e+01  6.772937e+00  5.500000e+00
     vertex  1.221309e+01  6.859476e+00  5.300000e+00
     vertex  1.256419e+01  6.772937e+00  5.300000e+00
   endloop
 endfacet
 facet normal -2.393157e-01 -9.709418e-01 -2.110777e-15
   outer loop
     vertex  1.256419e+01  6.772937e+00  5.500000e+00
     vertex  1.221309e+01  6.859476e+00  5.500000e+00
     vertex  1.221309e+01  6.859476e+00  5.300000e+00
   endloop
 endfacet
 facet normal  0.000000e+00 -1.000000e+00 -0.000000e+00
   outer loop
     vertex  1.292581e+01  6.772937e+00  5.500000e+00
     vertex  1.256419e+01  6.772937e+00  5.300000e+00
     vertex  1.292581e+01  6.772937e+00  5.300000e+00
   endloop
 endfacet
 facet normal -0.000000e+00 -1.000000e+00  0.000000e+00
   outer loop
     vertex  1.292581e+01  6.772937e+00  5.500000e+00
     vertex  1.256419e+01  6.772937e+00  5.500000e+00
     vertex  1.256419e+01  6.772937e+00  5.300000e+00
   endloop
 endfacet
 facet normal  2.393157e-01 -9.709418e-01  2.125550e-15
   outer loop
     vertex  1.327691e+01  6.859476e+00  5.500000e+00
     vertex  1.292581e+01  6.772937e+00  5.300000e+00
     vertex  1.327691e+01  6.859476e+00  5.300000e+00
   endloop
 endfacet
 facet normal  2.393157e-01 -9.709418e-01  2.110777e-15
   outer loop
     vertex  1.327691e+01  6.859476e+00  5.500000e+00
     vertex  1.292581e+01  6.772937e+00  5.500000e+00
     vertex  1.292581e+01  6.772937e+00  5.300000e+00
   endloop
 endfacet
 facet normal  4.647232e-01 -8.854560e-01  0.000000e+00
   outer loop
     vertex  1.359710e+01  7.027525e+00  5.500000e+00
     vertex  1.327691e+01  6.859476e+00  5.300000e+00
     vertex  1.359710e+01  7.027525e+00  5.300000e+00
   endloop
 endfacet
 facet normal  4.647232e-01 -8.854560e-01  4.125611e-15
   outer loop
     vertex  1.359710e+01  7.027525e+00  5.500000e+00
     vertex  1.327691e+01  6.859476e+00  5.500000e+00
     vertex  1.327691e+01  6.859476e+00  5.300000e+00
   endloop
 endfacet
 facet normal  6.631227e-01 -7.485107e-01  0.000000e+00
   outer loop
     vertex  1.386777e+01  7.267317e+00  5.500000e+00
     vertex  1.359710e+01  7.027525e+00  5.300000e+00
     vertex  1.386777e+01  7.267317e+00  5.300000e+00
   endloop
 endfacet
 facet normal  6.631227e-01 -7.485107e-01  0.000000e+00
   outer loop
     vertex  1.386777e+01  7.267317e+00  5.500000e+00
     vertex  1.359710e+01  7.027525e+00  5.500000e+00
     vertex  1.359710e+01  7.027525e+00  5.300000e+00
   endloop
 endfacet
 facet normal  8.229839e-01 -5.680647e-01  7.309565e-15
   outer loop
     vertex  1.407318e+01  7.564916e+00  5.500000e+00
     vertex  1.386777e+01  7.267317e+00  5.300000e+00
     vertex  1.407318e+01  7.564916e+00  5.300000e+00
   endloop
 endfacet
 facet normal  8.229839e-01 -5.680647e-01  0.000000e+00
   outer loop
     vertex  1.407318e+01  7.564916e+00  5.500000e+00
     vertex  1.386777e+01  7.267317e+00  5.500000e+00
     vertex  1.386777e+01  7.267317e+00  5.300000e+00
   endloop
 endfacet
 facet normal  9.350162e-01 -3.546049e-01 -6.299048e-15
   outer loop
     vertex  1.420141e+01  7.903027e+00  5.500000e+00
     vertex  1.407318e+01  7.564916e+00  5.300000e+00
     vertex  1.420141e+01  7.903027e+00  5.300000e+00
   endloop
 endfacet
 facet normal  9.350162e-01 -3.546049e-01  8.251221e-15
   outer loop
     vertex  1.420141e+01  7.903027e+00  5.500000e+00
     vertex  1.407318e+01  7.564916e+00  5.500000e+00
     vertex  1.407318e+01  7.564916e+00  5.300000e+00
   endloop
 endfacet
 facet normal  9.927089e-01 -1.205367e-01  0.000000e+00
   outer loop
     vertex  1.424500e+01  8.262001e+00  5.500000e+00
     vertex  1.420141e+01  7.903027e+00  5.300000e+00
     vertex  1.424500e+01  8.262001e+00  5.300000e+00
   endloop
 endfacet
 facet normal  9.927089e-01 -1.205367e-01 -2.158750e-15
   outer loop
     vertex  1.424500e+01  8.262001e+00  5.500000e+00
     vertex  1.420141e+01  7.903027e+00  5.500000e+00
     vertex  1.420141e+01  7.903027e+00  5.300000e+00
   endloop
 endfacet
 facet normal  9.927089e-01  1.205367e-01  0.000000e+00
   outer loop
     vertex  1.420141e+01  8.620974e+00  5.500000e+00
     vertex  1.424500e+01  8.262001e+00  5.500000e+00
     vertex  1.424500e+01  8.262001e+00  5.300000e+00
   endloop
 endfacet
 facet normal  9.927089e-01  1.205367e-01  2.141162e-15
   outer loop
     vertex  1.420141e+01  8.620974e+00  5.500000e+00
     vertex  1.424500e+01  8.262001e+00  5.300000e+00
     vertex  1.420141e+01  8.620974e+00  5.300000e+00
   endloop
 endfacet
 facet normal  9.350162e-01  3.546049e-01 -8.304612e-15
   outer loop
     vertex  1.407318e+01  8.959086e+00  5.500000e+00
     vertex  1.420141e+01  8.620974e+00  5.300000e+00
     vertex  1.407318e+01  8.959086e+00  5.300000e+00
   endloop
 endfacet
 facet normal  9.350162e-01  3.546049e-01  6.236388e-15
   outer loop
     vertex  1.407318e+01  8.959086e+00  5.500000e+00
     vertex  1.420141e+01  8.620974e+00  5.500000e+00
     vertex  1.420141e+01  8.620974e+00  5.300000e+00
   endloop
 endfacet
 facet normal  8.229839e-01  5.680647e-01  0.000000e+00
   outer loop
     vertex  1.386777e+01  9.256685e+00  5.500000e+00
     vertex  1.407318e+01  8.959086e+00  5.300000e+00
     vertex  1.386777e+01  9.256685e+00  5.300000e+00
   endloop
 endfacet
 facet normal  8.229839e-01  5.680647e-01 -7.291777e-15
   outer loop
     vertex  1.386777e+01  9.256685e+00  5.500000e+00
     vertex  1.407318e+01  8.959086e+00  5.500000e+00
     vertex  1.407318e+01  8.959086e+00  5.300000e+00
   endloop
 endfacet
 facet normal  6.631227e-01  7.485107e-01  0.000000e+00
   outer loop
     vertex  1.359710e+01  9.496477e+00  5.500000e+00
     vertex  1.386777e+01  9.256685e+00  5.300000e+00
     vertex  1.359710e+01  9.496477e+00  5.300000e+00
   endloop
 endfacet
 facet normal  6.631227e-01  7.485107e-01  0.000000e+00
   outer loop
     vertex  1.359710e+01  9.496477e+00  5.500000e+00
     vertex  1.386777e+01  9.256685e+00  5.500000e+00
     vertex  1.386777e+01  9.256685e+00  5.300000e+00
   endloop
 endfacet
 facet normal  4.647232e-01  8.854560e-01 -4.127571e-15
   outer loop
     vertex  1.327691e+01  9.664525e+00  5.500000e+00
     vertex  1.359710e+01  9.496477e+00  5.300000e+00
     vertex  1.327691e+01  9.664525e+00  5.300000e+00
   endloop
 endfacet
 facet normal  4.647232e-01  8.854560e-01  0.000000e+00
   outer loop
     vertex  1.327691e+01  9.664525e+00  5.500000e+00
     vertex  1.359710e+01  9.496477e+00  5.500000e+00
     vertex  1.359710e+01  9.496477e+00  5.300000e+00
   endloop
 endfacet
 facet normal  2.393157e-01  9.709418e-01 -2.125550e-15
   outer loop
     vertex  1.292581e+01  9.751064e+00  5.500000e+00
     vertex  1.327691e+01  9.664525e+00  5.300000e+00
     vertex  1.292581e+01  9.751064e+00  5.300000e+00
   endloop
 endfacet
 facet normal  2.393157e-01  9.709418e-01 -2.110777e-15
   outer loop
     vertex  1.292581e+01  9.751064e+00  5.500000e+00
     vertex  1.327691e+01  9.664525e+00  5.500000e+00
     vertex  1.327691e+01  9.664525e+00  5.300000e+00
   endloop
 endfacet
 facet normal  0.000000e+00  1.000000e+00  0.000000e+00
   outer loop
     vertex  1.256419e+01  9.751064e+00  5.500000e+00
     vertex  1.292581e+01  9.751064e+00  5.300000e+00
     vertex  1.256419e+01  9.751064e+00  5.300000e+00
   endloop
 endfacet
 facet normal -0.000000e+00  1.000000e+00  0.000000e+00
   outer loop
     vertex  1.256419e+01  9.751064e+00  5.500000e+00
     vertex  1.292581e+01  9.751064e+00  5.500000e+00
     vertex  1.292581e+01  9.751064e+00  5.300000e+00
   endloop
 endfacet
 facet normal -2.393157e-01  9.709418e-01  2.125550e-15
   outer loop
     vertex  1.221309e+01  9.664525e+00  5.500000e+00
     vertex  1.256419e+01  9.751064e+00  5.300000e+00
     vertex  1.221309e+01  9.664525e+00  5.300000e+00
   endloop
 endfacet
 facet normal -2.393157e-01  9.709418e-01  2.110777e-15
   outer loop
     vertex  1.221309e+01  9.664525e+00  5.500000e+00
     vertex  1.256419e+01  9.751064e+00  5.500000e+00
     vertex  1.256419e+01  9.751064e+00  5.300000e+00
   endloop
 endfacet
 facet normal -4.647232e-01  8.854560e-01  0.000000e+00
   outer loop
     vertex  1.189290e+01  9.496477e+00  5.500000e+00
     vertex  1.221309e+01  9.664525e+00  5.300000e+00
     vertex  1.189290e+01  9.496477e+00  5.300000e+00
   endloop
 endfacet
 facet normal -4.647232e-01  8.854560e-01  4.125611e-15
   outer loop
     vertex  1.189290e+01  9.496477e+00  5.500000e+00
     vertex  1.221309e+01  9.664525e+00  5.500000e+00
     vertex  1.221309e+01  9.664525e+00  5.300000e+00
   endloop
 endfacet
 facet normal -6.631227e-01  7.485107e-01  0.000000e+00
   outer loop
     vertex  1.162223e+01  9.256685e+00  5.500000e+00
     vertex  1.189290e+01  9.496477e+00  5.300000e+00
     vertex  1.162223e+01  9.256685e+00  5.300000e+00
   endloop
 endfacet
 facet normal -6.631227e-01  7.485107e-01  0.000000e+00
   outer loop
     vertex  1.162223e+01  9.256685e+00  5.500000e+00
     vertex  1.189290e+01  9.496477e+00  5.500000e+00
     vertex  1.189290e+01  9.496477e+00  5.300000e+00
   endloop
 endfacet
 facet normal -8.229839e-01  5.680647e-01  7.309565e-15
   outer loop
     vertex  1.141682e+01  8.959086e+00  5.500000e+00
     vertex  1.162223e+01  9.256685e+00  5.300000e+00
     vertex  1.141682e+01  8.959086e+00  5.300000e+00
   endloop
 endfacet
 facet normal -8.229839e-01  5.680647e-01  0.000000e+00
   outer loop
     vertex  1.141682e+01  8.959086e+00  5.500000e+00
     vertex  1.162223e+01  9.256685e+00  5.500000e+00
     vertex  1.162223e+01  9.256685e+00  5.300000e+00
   endloop
 endfacet
 facet normal -9.350162e-01  3.546049e-01 -6.299048e-15
   outer loop
     vertex  1.128859e+01  8.620974e+00  5.500000e+00
     vertex  1.141682e+01  8.959086e+00  5.300000e+00
     vertex  1.128859e+01  8.620974e+00  5.300000e+00
   endloop
 endfacet
 facet normal -9.350162e-01  3.546049e-01  8.251221e-15
   outer loop
     vertex  1.128859e+01  8.620974e+00  5.500000e+00
     vertex  1.141682e+01  8.959086e+00  5.500000e+00
     vertex  1.141682e+01  8.959086e+00  5.300000e+00
   endloop
 endfacet
 facet normal -9.927089e-01  1.205367e-01  0.000000e+00
   outer loop
     vertex  1.124500e+01  8.262001e+00  5.500000e+00
     vertex  1.128859e+01  8.620974e+00  5.300000e+00
     vertex  1.124500e+01  8.262001e+00  5.300000e+00
   endloop
 endfacet
 facet normal -9.927089e-01  1.205367e-01 -2.158750e-15
   outer loop
     vertex  1.124500e+01  8.262001e+00  5.500000e+00
     vertex  1.128859e+01  8.620974e+00  5.500000e+00
     vertex  1.128859e+01  8.620974e+00  5.300000e+00
   endloop
 endfacet
endsolid
