solid 
 facet normal  0.000000e+00  0.000000e+00  1.000000e+00
   outer loop
     vertex  5.194751e+00  1.565341e+01  1.000000e+00
     vertex  0.000000e+00  1.565341e+01  1.000000e+00
     vertex  0.000000e+00  4.401267e+00  1.000000e+00
   endloop
 endfacet
 facet normal  0.000000e+00  0.000000e+00  1.000000e+00
   outer loop
     vertex  5.194751e+00  1.565341e+01  1.000000e+00
     vertex  0.000000e+00  4.401267e+00  1.000000e+00
     vertex  5.194751e+00  4.401267e+00  1.000000e+00
   endloop
 endfacet
 facet normal -0.000000e+00  1.000000e+00  0.000000e+00
   outer loop
     vertex  0.000000e+00  1.565341e+01  1.000000e+00
     vertex  5.194751e+00  1.565341e+01  1.000000e+00
     vertex  5.194751e+00  1.565341e+01  0.000000e+00
   endloop
 endfacet
 facet normal  0.000000e+00  1.000000e+00  0.000000e+00
   outer loop
     vertex  0.000000e+00  1.565341e+01  1.000000e+00
     vertex  5.194751e+00  1.565341e+01  0.000000e+00
     vertex  0.000000e+00  1.565341e+01  0.000000e+00
   endloop
 endfacet
 facet normal -1.000000e+00  0.000000e+00  0.000000e+00
   outer loop
     vertex  0.000000e+00  4.401267e+00  0.000000e+00
     vertex  0.000000e+00  1.565341e+01  1.000000e+00
     vertex  0.000000e+00  1.565341e+01  0.000000e+00
   endloop
 endfacet
 facet normal -1.000000e+00  0.000000e+00  0.000000e+00
   outer loop
     vertex  0.000000e+00  4.401267e+00  1.000000e+00
     vertex  0.000000e+00  1.565341e+01  1.000000e+00
     vertex  0.000000e+00  4.401267e+00  0.000000e+00
   endloop
 endfacet
 facet normal -0.000000e+00 -1.000000e+00  0.000000e+00
   outer loop
     vertex  5.194751e+00  4.401267e+00  1.000000e+00
     vertex  0.000000e+00  4.401267e+00  1.000000e+00
     vertex  0.000000e+00  4.401267e+00  0.000000e+00
   endloop
 endfacet
 facet normal  0.000000e+00 -1.000000e+00 -0.000000e+00
   outer loop
     vertex  5.194751e+00  4.401267e+00  1.000000e+00
     vertex  0.000000e+00  4.401267e+00  0.000000e+00
     vertex  5.194751e+00  4.401267e+00  0.000000e+00
   endloop
 endfacet
 facet normal  1.000000e+00  0.000000e+00  0.000000e+00
   outer loop
     vertex  5.194751e+00  1.565341e+01  0.000000e+00
     vertex  5.194751e+00  4.401267e+00  1.000000e+00
     vertex  5.194751e+00  4.401267e+00  0.000000e+00
   endloop
 endfacet
 facet normal  1.000000e+00  0.000000e+00  0.000000e+00
   outer loop
     vertex  5.194751e+00  1.565341e+01  1.000000e+00
     vertex  5.194751e+00  4.401267e+00  1.000000e+00
     vertex  5.194751e+00  1.565341e+01  0.000000e+00
   endloop
 endfacet
 facet normal -0.000000e+00  0.000000e+00 -1.000000e+00
   outer loop
     vertex  5.194751e+00  1.565341e+01  0.000000e+00
     vertex  0.000000e+00  4.401267e+00  0.000000e+00
     vertex  0.000000e+00  1.565341e+01  0.000000e+00
   endloop
 endfacet
 facet normal  0.000000e+00 -0.000000e+00 -1.000000e+00
   outer loop
     vertex  5.194751e+00  1.565341e+01  0.000000e+00
     vertex  5.194751e+00  4.401267e+00  0.000000e+00
     vertex  0.000000e+00  4.401267e+00  0.000000e+00
   endloop
 endfacet
endsolid
